<?xml version="1.0" standalone="no"?><!-- Generator: Gravit.io --><svg xmlns="http://www.w3.org/2000/svg" xmlns:xlink="http://www.w3.org/1999/xlink" style="isolation:isolate" viewBox="0 0 490.319 490.319" width="490.319" height="490.319"><defs><clipPath id="_clipPath_m9ImnZv1i8JsK3D374kTN1WehpS64Rfd"><rect width="490.319" height="490.319"/></clipPath></defs><g clip-path="url(#_clipPath_m9ImnZv1i8JsK3D374kTN1WehpS64Rfd)"><g><clipPath id="_clipPath_rQwAzMGXHwiG1S30rSlh1QyNYXcn68mw"><path d=" M -1208 -1035 L -1208 965 L 792 965 L 792 -1035 L -1208 -1035 Z " fill="rgb(255,255,255)"/></clipPath><g clip-path="url(#_clipPath_rQwAzMGXHwiG1S30rSlh1QyNYXcn68mw)"><path d=" M -499.833 -505.905 L -774.17 -505.905 L -774.17 -662.865 L -499.833 -662.865 L -499.833 -505.905 Z " fill="rgb(39,93,138)"/></g><clipPath id="_clipPath_GMwTariJ1rX9kfVB0Klc1gXih5pFHsDr"><path d=" M -1208 -1035 L -1208 965 L 792 965 L 792 -1035 L -1208 -1035 Z " fill="rgb(255,255,255)"/></clipPath><g clip-path="url(#_clipPath_GMwTariJ1rX9kfVB0Klc1gXih5pFHsDr)"><path d=" M -499.833 -669.595 L -499.833 -631.802 L -742.603 -631.802 C -753.53 -631.802 -763.163 -637.267 -768.818 -645.58 C -772.205 -650.517 -774.17 -656.465 -774.17 -662.865 C -774.17 -663.887 -774.125 -664.89 -774.015 -665.887 C -773.3 -673.257 -769.958 -679.875 -764.917 -684.825 C -759.208 -690.453 -751.32 -693.927 -742.603 -693.927 L -526.953 -693.927 C -512.75 -693.927 -501.083 -683.24 -499.833 -669.595 Z " fill="rgb(39,93,138)"/></g><clipPath id="_clipPath_WTWsNMFJbl6n2NjkQauVankHXejklhhx"><path d=" M -1208 -1035 L -1208 965 L 792 965 L 792 -1035 L -1208 -1035 Z " fill="rgb(255,255,255)"/></clipPath><g clip-path="url(#_clipPath_WTWsNMFJbl6n2NjkQauVankHXejklhhx)"><path d=" M -510.828 -655.3 L -510.828 -461.373 L -737.868 -461.373 C -754.17 -461.373 -767.39 -510.237 -767.39 -570.502 C -767.39 -574.098 -767.348 -577.605 -767.245 -581.125 C -766.762 -599.575 -765.038 -616.685 -762.385 -631.287 C -761.318 -637.17 -760.095 -642.655 -758.738 -647.647 C -758.37 -649 -757.995 -650.32 -757.608 -651.595 C -752.382 -669.045 -745.465 -679.635 -737.868 -679.635 L -536.19 -679.635 C -522.908 -679.635 -511.998 -668.947 -510.828 -655.3 Z " fill="rgb(254,254,254)"/></g><clipPath id="_clipPath_RqvZasyUS0AFIcsVRsIGD6VVpKR1moDL"><path d=" M -1208 -1035 L -1208 965 L 792 965 L 792 -1035 L -1208 -1035 Z " fill="rgb(255,255,255)"/></clipPath><g clip-path="url(#_clipPath_RqvZasyUS0AFIcsVRsIGD6VVpKR1moDL)"><path d=" M -527.075 -617.507 L -629.58 -619.157 L -629.58 -651.595 L -774.17 -651.595 L -774.17 -480.065 L -774.17 -409.143 L -774.17 -344.702 L -716.863 -409.143 L -526.405 -409.143 C -511.73 -409.143 -499.833 -421.04 -499.833 -435.715 L -499.833 -590.702 C -499.833 -605.512 -512.023 -617.507 -527.075 -617.507 Z " fill="rgb(54,130,195)"/></g><clipPath id="_clipPath_YrBrIYXlONSpYZW6KgKgYkRtPj5Oi5di"><path d=" M -1208 -1035 L -1208 965 L 792 965 L 792 -1035 L -1208 -1035 Z " fill="rgb(255,255,255)"/></clipPath><g clip-path="url(#_clipPath_YrBrIYXlONSpYZW6KgKgYkRtPj5Oi5di)"><path d=" M -699.728 -530.367 C -699.728 -521.905 -706.593 -515.042 -715.058 -515.042 C -723.52 -515.042 -730.385 -521.905 -730.385 -530.367 C -730.385 -538.835 -723.52 -545.697 -715.058 -545.697 C -706.593 -545.697 -699.728 -538.835 -699.728 -530.367 Z " fill="rgb(254,254,254)"/></g><clipPath id="_clipPath_iWTpSxKcmQ0gcMbqTrHMyhrt8eyDvO5t"><path d=" M -1208 -1035 L -1208 965 L 792 965 L 792 -1035 L -1208 -1035 Z " fill="rgb(255,255,255)"/></clipPath><g clip-path="url(#_clipPath_iWTpSxKcmQ0gcMbqTrHMyhrt8eyDvO5t)"><path d=" M -621.675 -530.367 C -621.675 -521.905 -628.535 -515.042 -637.003 -515.042 C -645.465 -515.042 -652.328 -521.905 -652.328 -530.367 C -652.328 -538.835 -645.465 -545.697 -637.003 -545.697 C -628.535 -545.697 -621.675 -538.835 -621.675 -530.367 Z " fill="rgb(254,254,254)"/></g><clipPath id="_clipPath_IsiL2Xkc7vZC3HM9OQQ3V7PqFJdwpfig"><path d=" M -1208 -1035 L -1208 965 L 792 965 L 792 -1035 L -1208 -1035 Z " fill="rgb(255,255,255)"/></clipPath><g clip-path="url(#_clipPath_IsiL2Xkc7vZC3HM9OQQ3V7PqFJdwpfig)"><path d=" M -543.62 -530.367 C -543.62 -521.905 -550.48 -515.042 -558.945 -515.042 C -567.413 -515.042 -574.272 -521.905 -574.272 -530.367 C -574.272 -538.835 -567.413 -545.697 -558.945 -545.697 C -550.48 -545.697 -543.62 -538.835 -543.62 -530.367 Z " fill="rgb(254,254,254)"/></g><clipPath id="_clipPath_cCPnl5E95m521NC5IsdlPx5Evas2O1Z9"><path d=" M -1208 -1035 L -1208 965 L 792 965 L 792 -1035 L -1208 -1035 Z " fill="rgb(255,255,255)"/></clipPath><g clip-path="url(#_clipPath_cCPnl5E95m521NC5IsdlPx5Evas2O1Z9)"><path d=" M -510.828 -655.3 L -510.828 -617.507 L -737.868 -617.507 C -748.088 -617.507 -757.098 -622.972 -762.385 -631.287 C -765.552 -636.222 -767.39 -642.172 -767.39 -648.572 C -767.39 -649.592 -767.348 -650.595 -767.245 -651.595 C -766.575 -658.962 -763.45 -665.58 -758.738 -670.53 C -753.397 -676.16 -746.02 -679.635 -737.868 -679.635 L -536.19 -679.635 C -522.908 -679.635 -511.998 -668.947 -510.828 -655.3 Z " fill="rgb(254,254,254)"/></g><g transform="matrix(1,0,0,1,-975.259,-370.951)"><text transform="matrix(1,0,0,1,0,47.029)" style="font-family:'Open Sans';font-weight:400;font-size:44px;font-style:normal;fill:[Object GCMYKColor];stroke:none;">BOOK</text></g><g transform="matrix(1,0,0,1,-972.757,-246.728)"><text transform="matrix(1,0,0,1,5.715,23.515)" style="font-family:'Open Sans';font-weight:400;font-size:22px;font-style:normal;fill:[Object GCMYKColor];stroke:none;">!"#$%&amp;'%$()!*A+$,&amp;#&amp;</text></g><clipPath id="_clipPath_ZA4CHM0zsZ6mOtMsO5qM4eFvr1zPhhbx"><path d=" M -1208 -1035 L -1208 965 L 792 965 L 792 -1035 L -1208 -1035 Z " fill="rgb(255,255,255)"/></clipPath><g clip-path="url(#_clipPath_ZA4CHM0zsZ6mOtMsO5qM4eFvr1zPhhbx)"><path d=" M -753.983 193.22 C -753.983 193.22 -727.175 141.162 -753.983 88.372 C -780.79 35.58 -782.99 4.785 -782.99 4.785 L -807.185 132.362 L -753.983 193.22 Z " fill="rgb(44,139,197)"/></g><clipPath id="_clipPath_3MB3QmaObhzrieSPMSqPsf6xWemROBak"><path d=" M -1208 -1035 L -1208 965 L 792 965 L 792 -1035 L -1208 -1035 Z " fill="rgb(255,255,255)"/></clipPath><g clip-path="url(#_clipPath_3MB3QmaObhzrieSPMSqPsf6xWemROBak)"><path d=" M -741.195 185.888 C -741.195 185.888 -754.395 89.93 -639.28 50.29 C -524.165 10.652 -520.5 -0.347 -520.5 -0.347 L -532.963 185.888 L -660.543 295.873 L -741.195 185.888 Z " fill="rgb(44,139,197)"/></g><clipPath id="_clipPath_l8xCb30InpoLGezPh12G2f7iejWisCwj"><path d=" M -1208 -1035 L -1208 965 L 792 965 L 792 -1035 L -1208 -1035 Z " fill="rgb(255,255,255)"/></clipPath><g clip-path="url(#_clipPath_l8xCb30InpoLGezPh12G2f7iejWisCwj)"><path d=" M -730.268 186.823 C -730.268 186.823 -738.463 126.595 -618.55 91.563 C -498.635 56.533 -502.27 50.29 -502.27 50.29 C -502.27 50.29 -528.323 198.86 -489.582 269.362 C -489.582 269.362 -577.57 326.665 -601.46 397.053 C -601.46 397.053 -726.342 235.55 -730.268 186.823 Z " fill="rgb(52,169,224)"/></g><clipPath id="_clipPath_feLelSfCMDCETUCNZ7psUp50CPyQpsAr"><path d=" M -1208 -1035 L -1208 965 L 792 965 L 792 -1035 L -1208 -1035 Z " fill="rgb(255,255,255)"/></clipPath><g clip-path="url(#_clipPath_feLelSfCMDCETUCNZ7psUp50CPyQpsAr)"><path d=" M -744.74 183.69 C -744.74 183.69 -750.07 140.938 -793.255 93.503 C -836.44 46.07 -822.78 26.05 -822.78 26.05 C -822.78 26.05 -868.49 51.308 -781.748 244.345 C -781.748 244.345 -695.19 301.533 -664.942 333.265 L -744.74 183.69 Z " fill="rgb(52,169,224)"/></g><clipPath id="_clipPath_06HtQPqdgEeCZDo50nqJpvp224q9dawh"><path d=" M -1208 -1035 L -1208 965 L 792 965 L 792 -1035 L -1208 -1035 Z " fill="rgb(255,255,255)"/></clipPath><g clip-path="url(#_clipPath_06HtQPqdgEeCZDo50nqJpvp224q9dawh)"><path d=" M -729.298 240.588 C -723.713 250.95 -718.245 261.375 -713.01 271.918 C -697.225 303.712 -683.468 336.753 -675.543 371.453 C -669.598 397.492 -662.265 428.058 -633.928 437.708 C -617.255 443.388 -602.623 429.917 -600.877 414.388 C -598.5 393.225 -607.693 375.925 -618.78 358.497 C -647.593 313.205 -675.06 267.395 -709.14 226.023 C -715.392 218.43 -727.613 199.275 -737.233 196.515 C -754.615 191.533 -741.125 218.925 -738.03 224.555 C -735.1 229.888 -732.183 235.23 -729.298 240.588 Z " fill="rgb(40,115,168)"/></g><clipPath id="_clipPath_oJqG2XBcSJGArq5Uplv9Rl3gfyaKCCje"><path d=" M -1208 -1035 L -1208 965 L 792 965 L 792 -1035 L -1208 -1035 Z " fill="rgb(255,255,255)"/></clipPath><g clip-path="url(#_clipPath_oJqG2XBcSJGArq5Uplv9Rl3gfyaKCCje)"><path d=" M -727.535 191.457 C -727.535 209.25 -741.957 223.673 -759.75 223.673 C -777.543 223.673 -791.965 209.25 -791.965 191.457 C -791.965 173.667 -777.543 159.243 -759.75 159.243 C -741.957 159.243 -727.535 173.667 -727.535 191.457 Z " fill="rgb(40,115,168)"/></g><clipPath id="_clipPath_xIxrGKNzhXDVI3AfhDUVkp8fT8vK497i"><path d=" M -1208 -1035 L -1208 965 L 792 965 L 792 -1035 L -1208 -1035 Z " fill="rgb(255,255,255)"/></clipPath><g clip-path="url(#_clipPath_xIxrGKNzhXDVI3AfhDUVkp8fT8vK497i)"><path d=" M -778.957 183.167 C -800.833 165.303 -825.82 146.162 -855.895 152.205 C -867.477 154.533 -880.045 161.27 -884.495 172.938 C -888.78 184.165 -886.693 198.805 -882.175 209.612 C -880.925 212.605 -876.062 212.577 -876.1 208.792 C -876.2 198.8 -879.115 188.41 -873.96 179.095 C -867.905 168.15 -855.195 163.74 -843.183 164.163 C -820.87 164.948 -802.04 177.86 -784.373 190.183 C -780.257 193.058 -775.017 186.385 -778.957 183.167 Z " fill="rgb(40,115,168)"/></g><clipPath id="_clipPath_wjpcHgET0tEDvo5Rn0EdVdVS4zeWUfDn"><path d=" M -1208 -1035 L -1208 965 L 792 965 L 792 -1035 L -1208 -1035 Z " fill="rgb(255,255,255)"/></clipPath><g clip-path="url(#_clipPath_wjpcHgET0tEDvo5Rn0EdVdVS4zeWUfDn)"><path d=" M -798.933 107.5 C -810.108 101.93 -824.208 94.758 -837.055 96.51 C -846.27 97.763 -854.167 106.7 -852.65 116.12 C -852.203 118.905 -847.5 119.598 -846.37 116.94 C -838.625 98.778 -801.473 121.108 -791.13 127.85 C -774.467 138.71 -764.225 153.803 -753.328 170.015 C -751.88 172.167 -747.835 171.592 -748.042 168.585 C -749.973 140.67 -775.568 119.14 -798.933 107.5 Z " fill="rgb(40,115,168)"/></g><g transform="matrix(1,0,0,1,-924.235,432.696)"><text transform="matrix(1,0,0,1,0,47.029)" style="font-family:'Open Sans';font-weight:400;font-size:44px;font-style:normal;fill:[Object GCMYKColor];stroke:none;">BOOK</text></g><g transform="matrix(1,0,0,1,-629.72,432.696)"><text transform="matrix(1,0,0,1,0,47.029)" style="font-family:'Open Sans';font-weight:400;font-size:44px;font-style:normal;fill:[Object GCMYKColor];stroke:none;">LOGO</text></g><g transform="matrix(1,0,0,1,-919.755,559.869)"><text transform="matrix(1,0,0,1,4.936,20.308)" style="font-family:'Open Sans';font-weight:400;font-size:19px;font-style:normal;fill:[Object GCMYKColor];stroke:none;">!"#$</text></g><g transform="matrix(1,0,0,1,-782.387,559.869)"><text transform="matrix(1,0,0,1,0,20.308)" style="font-family:'Open Sans';font-weight:400;font-size:19px;font-style:normal;fill:[Object GCMYKColor];stroke:none;">%&amp;'%$()!*A+</text></g><g transform="matrix(1,0,0,1,-483.093,559.869)"><text transform="matrix(1,0,0,1,0,20.308)" style="font-family:'Open Sans';font-weight:400;font-size:19px;font-style:normal;fill:[Object GCMYKColor];stroke:none;">$,&amp;#&amp;</text></g><clipPath id="_clipPath_oKbjprgfF7SY4KRzysXW4MrJIYZ94D7E"><path d=" M -1208 -1035 L -1208 965 L 792 965 L 792 -1035 L -1208 -1035 Z " fill="rgb(255,255,255)"/></clipPath><g clip-path="url(#_clipPath_oKbjprgfF7SY4KRzysXW4MrJIYZ94D7E)"><path d=" M 148.045 -499.725 L 48.225 -548.47 L 204.8 -673.707 L 430.085 -593.765 L 370.56 -527.81 L 148.045 -499.725 Z " fill="rgb(44,139,197)"/></g><clipPath id="_clipPath_KajAVmkJG2jkF6tinhGNGdjsMfjk0zvP"><path d=" M -1208 -1035 L -1208 965 L 792 965 L 792 -1035 L -1208 -1035 Z " fill="rgb(255,255,255)"/></clipPath><g clip-path="url(#_clipPath_KajAVmkJG2jkF6tinhGNGdjsMfjk0zvP)"><path d=" M 202.92 -360.918 L -42.615 -360.918 C -50.668 -360.918 -57.258 -367.505 -57.258 -375.562 L -57.258 -376.22 C -57.258 -384.275 -50.668 -390.865 -42.615 -390.865 L 202.92 -390.865 C 210.975 -390.865 217.565 -384.275 217.565 -376.22 L 217.565 -375.562 C 217.565 -367.505 210.975 -360.918 202.92 -360.918 Z " fill="rgb(54,130,195)"/></g><clipPath id="_clipPath_pJQy4ExguR96sPDtWEohhYVTKj6OhM52"><path d=" M -1208 -1035 L -1208 965 L 792 965 L 792 -1035 L -1208 -1035 Z " fill="rgb(255,255,255)"/></clipPath><g clip-path="url(#_clipPath_pJQy4ExguR96sPDtWEohhYVTKj6OhM52)"><path d=" M 529.695 -360.918 L 284.162 -360.918 C 276.11 -360.918 269.517 -367.505 269.517 -375.562 L 269.517 -376.22 C 269.517 -384.275 276.11 -390.865 284.162 -390.865 L 529.695 -390.865 C 537.753 -390.865 544.342 -384.275 544.342 -376.22 L 544.342 -375.562 C 544.342 -367.505 537.753 -360.918 529.695 -360.918 Z " fill="rgb(54,130,195)"/></g><clipPath id="_clipPath_hVpKrv37aqi2tVPHYzuPPiDvVof1CIAC"><path d=" M -1208 -1035 L -1208 965 L 792 965 L 792 -1035 L -1208 -1035 Z " fill="rgb(255,255,255)"/></clipPath><g clip-path="url(#_clipPath_hVpKrv37aqi2tVPHYzuPPiDvVof1CIAC)"><path d=" M 266.095 -383.47 C 266.095 -371.015 255.997 -360.918 243.54 -360.918 C 231.085 -360.918 220.987 -371.015 220.987 -383.47 C 220.987 -395.927 231.085 -406.022 243.54 -406.022 C 255.997 -406.022 266.095 -395.927 266.095 -383.47 Z " fill="rgb(54,130,195)"/></g><path d=" M -1208 -1035 L -1208 965 L 792 965 L 792 -1035 L -1208 -1035 Z " fill="none"/><clipPath id="_clipPath_lJXHQXBDvgBeTHuN3wGL53kchbZE1fHx"><path d=" M -1208 -1035 L -1208 965 L 792 965 L 792 -1035 L -1208 -1035 Z " fill="rgb(255,255,255)"/></clipPath><g clip-path="url(#_clipPath_lJXHQXBDvgBeTHuN3wGL53kchbZE1fHx)"><path d=" M 530.037 -394.395 C 528.452 -394.395 270.54 -394.395 270.54 -394.395 C 270.54 -394.395 265.785 -408.675 250.987 -408.28 C 250.987 -408.28 389.982 -518.145 530.037 -451.907 L 530.037 -394.395 Z " fill="rgb(254,204,121)"/></g><clipPath id="_clipPath_6eesM6ZWQq2mRtefyW2zY8jzxhoJTpgT"><path d=" M -1208 -1035 L -1208 965 L 792 965 L 792 -1035 L -1208 -1035 Z " fill="rgb(255,255,255)"/></clipPath><g clip-path="url(#_clipPath_6eesM6ZWQq2mRtefyW2zY8jzxhoJTpgT)"><path d=" M 243.54 -576.73 C 167.232 -576.73 105.372 -561.43 105.372 -542.555 L 105.372 -482.773 C 105.372 -482.773 207.71 -466.307 243.54 -430.79 C 279.37 -466.307 381.71 -482.773 381.71 -482.773 L 381.71 -542.555 C 381.71 -561.43 319.85 -576.73 243.54 -576.73 Z " fill="rgb(52,169,224)"/></g><clipPath id="_clipPath_7Q2Og1Oa0Ovs5xaNOhdmjiIUCsHjmRdP"><path d=" M -1208 -1035 L -1208 965 L 792 965 L 792 -1035 L -1208 -1035 Z " fill="rgb(255,255,255)"/></clipPath><g clip-path="url(#_clipPath_7Q2Og1Oa0Ovs5xaNOhdmjiIUCsHjmRdP)"><path d=" M 153.342 -574.942 C 150.437 -590.765 149.545 -606.912 146.317 -622.647 C 144.635 -630.842 133.792 -627.817 132.92 -620.832 C 129.24 -591.347 136.077 -552.795 153.438 -528.347 C 155.267 -525.77 159.9 -526.43 159.792 -530.067 C 159.342 -545.33 156.09 -559.988 153.342 -574.942 Z " fill="rgb(40,113,174)"/></g><clipPath id="_clipPath_GOfHpPlD9qamZNsgLW2sa9q5W4WetdmN"><path d=" M -1208 -1035 L -1208 965 L 792 965 L 792 -1035 L -1208 -1035 Z " fill="rgb(255,255,255)"/></clipPath><g clip-path="url(#_clipPath_GOfHpPlD9qamZNsgLW2sa9q5W4WetdmN)"><path d=" M 171.107 -521.305 C 167.822 -527.75 164.25 -534.03 160.487 -540.202 C 155.897 -547.725 150.867 -544.5 148.125 -539.4 C 144.37 -532.415 131.15 -498.247 143.735 -495.645 C 153.05 -493.72 173.327 -491.042 176.252 -503.875 C 177.65 -510.003 173.767 -516.085 171.107 -521.305 Z " fill="rgb(254,204,121)"/></g><clipPath id="_clipPath_iiBEs6U1cJqbkZoyn3y09sZYKh0ZA6FA"><path d=" M -1208 -1035 L -1208 965 L 792 965 L 792 -1035 L -1208 -1035 Z " fill="rgb(255,255,255)"/></clipPath><g clip-path="url(#_clipPath_iiBEs6U1cJqbkZoyn3y09sZYKh0ZA6FA)"><path d=" M 57.397 341.03 C 57.397 274.7 57.397 208.367 57.397 142.033 C 42.47 146.195 27.77 151.715 13.447 158.642 C 13.447 240.475 13.447 322.313 13.447 404.148 C 85.152 369.455 166.357 369.455 238.062 404.148 C 180.388 349.31 115.072 326.49 57.397 341.03 Z " fill="rgb(145,215,243)"/></g><clipPath id="_clipPath_aLlgahDTt0fqCXs0LBM7TgNVqHC8Mdu2"><path d=" M -1208 -1035 L -1208 965 L 792 965 L 792 -1035 L -1208 -1035 Z " fill="rgb(255,255,255)"/></clipPath><g clip-path="url(#_clipPath_aLlgahDTt0fqCXs0LBM7TgNVqHC8Mdu2)"><path d=" M 429.688 142.033 C 429.688 208.367 429.688 274.7 429.688 341.03 C 372.015 326.49 306.698 349.31 249.025 404.148 C 320.727 369.455 401.935 369.455 473.637 404.148 C 473.637 322.313 473.637 240.475 473.637 158.642 C 459.317 151.715 444.615 146.195 429.688 142.033 Z " fill="rgb(145,215,243)"/></g><clipPath id="_clipPath_CrbaBrbJPQGMzMaBy4VTAcMQYiqUTliM"><path d=" M -1208 -1035 L -1208 965 L 792 965 L 792 -1035 L -1208 -1035 Z " fill="rgb(255,255,255)"/></clipPath><g clip-path="url(#_clipPath_CrbaBrbJPQGMzMaBy4VTAcMQYiqUTliM)"><path d=" M 116.67 93.203 C 96.445 90.017 76.503 90.71 57.397 95.525 C 57.397 111.028 57.397 126.53 57.397 142.033 C 76.88 136.602 96.747 133.525 116.67 132.807 C 116.67 119.608 116.67 106.408 116.67 93.203 Z " fill="rgb(98,196,235)"/></g><clipPath id="_clipPath_6GhnXC2w7c0udelerM7x2ZW3D1Qrxfu6"><path d=" M -1208 -1035 L -1208 965 L 792 965 L 792 -1035 L -1208 -1035 Z " fill="rgb(255,255,255)"/></clipPath><g clip-path="url(#_clipPath_6GhnXC2w7c0udelerM7x2ZW3D1Qrxfu6)"><path d=" M 238.062 158.642 L 238.062 158.642 L 238.062 158.642 L 238.062 158.642 Z " fill="rgb(52,169,224)"/></g><clipPath id="_clipPath_3FiIDEyXFoCgHFwCBuLEsFAwjtkDFTgi"><path d=" M -1208 -1035 L -1208 965 L 792 965 L 792 -1035 L -1208 -1035 Z " fill="rgb(255,255,255)"/></clipPath><g clip-path="url(#_clipPath_3FiIDEyXFoCgHFwCBuLEsFAwjtkDFTgi)"><path d=" M 238.062 158.642 L 238.062 158.642 L 238.062 158.642 L 238.062 158.642 Z " fill="rgb(52,169,224)"/></g><clipPath id="_clipPath_JeZvk5PBRpeMHtrhQuI4MxwfXPynX5NV"><path d=" M -1208 -1035 L -1208 965 L 792 965 L 792 -1035 L -1208 -1035 Z " fill="rgb(255,255,255)"/></clipPath><g clip-path="url(#_clipPath_JeZvk5PBRpeMHtrhQuI4MxwfXPynX5NV)"><path d=" M 116.67 294.95 C 116.67 240.902 116.67 186.855 116.67 132.807 C 96.747 133.525 76.88 136.602 57.397 142.033 C 57.397 208.367 57.397 274.7 57.397 341.03 C 115.072 326.49 180.388 349.31 238.062 404.148 C 199.31 334.598 155.422 295.12 116.67 294.95 Z " fill="rgb(72,173,225)"/></g><clipPath id="_clipPath_EHmnv8aIf4hkvckuGWfoead0WcVpE6XR"><path d=" M -1208 -1035 L -1208 965 L 792 965 L 792 -1035 L -1208 -1035 Z " fill="rgb(255,255,255)"/></clipPath><g clip-path="url(#_clipPath_EHmnv8aIf4hkvckuGWfoead0WcVpE6XR)"><path d=" M 238.062 158.642 L 238.062 158.642 L 238.062 158.642 L 238.062 158.642 Z " fill="rgb(52,169,224)"/></g><clipPath id="_clipPath_YIFIIvSiFMZvmXR19MXv698iwSM7HfEs"><path d=" M -1208 -1035 L -1208 965 L 792 965 L 792 -1035 L -1208 -1035 Z " fill="rgb(255,255,255)"/></clipPath><g clip-path="url(#_clipPath_YIFIIvSiFMZvmXR19MXv698iwSM7HfEs)"><path d=" M 429.688 142.033 C 429.688 126.53 429.688 111.028 429.688 95.525 C 410.585 90.71 390.64 90.017 370.415 93.203 C 370.415 106.408 370.415 119.608 370.415 132.807 C 390.337 133.525 410.205 136.602 429.688 142.033 Z " fill="rgb(98,196,235)"/></g><clipPath id="_clipPath_bTnVva0togBV7pBemNfInSY2BQgXz83j"><path d=" M -1208 -1035 L -1208 965 L 792 965 L 792 -1035 L -1208 -1035 Z " fill="rgb(255,255,255)"/></clipPath><g clip-path="url(#_clipPath_bTnVva0togBV7pBemNfInSY2BQgXz83j)"><path d=" M 429.688 341.03 C 429.688 274.7 429.688 208.367 429.688 142.033 C 410.205 136.602 390.337 133.525 370.415 132.807 C 370.415 186.855 370.415 240.902 370.415 294.95 C 331.662 295.12 287.777 334.598 249.025 404.148 C 306.698 349.31 372.015 326.49 429.688 341.03 Z " fill="rgb(72,173,225)"/></g><clipPath id="_clipPath_ElQfv6LIdY0IKA6z4OYdYddejIDECk7Z"><path d=" M -1208 -1035 L -1208 965 L 792 965 L 792 -1035 L -1208 -1035 Z " fill="rgb(255,255,255)"/></clipPath><g clip-path="url(#_clipPath_ElQfv6LIdY0IKA6z4OYdYddejIDECk7Z)"><path d=" M 238.062 158.642 L 238.062 158.642 L 238.062 158.642 L 238.062 158.642 Z " fill="rgb(52,169,224)"/></g><clipPath id="_clipPath_rOzSgpaHr9ywBB0M6BlzkpI6MetbGzTa"><path d=" M -1208 -1035 L -1208 965 L 792 965 L 792 -1035 L -1208 -1035 Z " fill="rgb(255,255,255)"/></clipPath><g clip-path="url(#_clipPath_rOzSgpaHr9ywBB0M6BlzkpI6MetbGzTa)"><path d=" M 116.67 49.445 C 116.67 64.03 116.67 78.618 116.67 93.203 C 157.505 99.638 199.492 121.967 238.062 158.642 C 199.31 89.095 155.422 49.615 116.67 49.445 Z " fill="rgb(98,196,235)"/></g><clipPath id="_clipPath_qilQWRUom5KLks3kUg1N5yYex48ifPNv"><path d=" M -1208 -1035 L -1208 965 L 792 965 L 792 -1035 L -1208 -1035 Z " fill="rgb(255,255,255)"/></clipPath><g clip-path="url(#_clipPath_qilQWRUom5KLks3kUg1N5yYex48ifPNv)"><path d=" M 238.062 158.642 L 238.062 158.642 C 199.492 121.967 157.505 99.638 116.67 93.203 C 116.67 106.408 116.67 119.608 116.67 132.807 C 157.91 131.325 199.37 139.922 238.062 158.642 Z " fill="rgb(61,152,211)"/></g><clipPath id="_clipPath_qkBM7m8dtrioMCnuh2p34OL8lxFOCp8D"><path d=" M -1208 -1035 L -1208 965 L 792 965 L 792 -1035 L -1208 -1035 Z " fill="rgb(255,255,255)"/></clipPath><g clip-path="url(#_clipPath_qkBM7m8dtrioMCnuh2p34OL8lxFOCp8D)"><path d=" M 238.062 158.642 C 199.37 139.922 157.91 131.325 116.67 132.807 C 116.67 186.855 116.67 240.902 116.67 294.95 C 155.422 295.12 199.31 334.598 238.062 404.148 C 238.062 322.313 238.062 240.477 238.062 158.642 L 238.062 158.642 Z " fill="rgb(65,133,197)"/></g><clipPath id="_clipPath_S6sd3fupiphivt1UJ1NOm91XPs1fjccx"><path d=" M -1208 -1035 L -1208 965 L 792 965 L 792 -1035 L -1208 -1035 Z " fill="rgb(255,255,255)"/></clipPath><g clip-path="url(#_clipPath_S6sd3fupiphivt1UJ1NOm91XPs1fjccx)"><path d=" M 370.415 49.445 C 331.662 49.615 287.777 89.095 249.025 158.642 C 287.592 121.967 329.58 99.638 370.415 93.203 C 370.415 78.618 370.415 64.03 370.415 49.445 Z " fill="rgb(98,196,235)"/></g><clipPath id="_clipPath_7kILnprPeP59zS52shRmMb1XSinVoijF"><path d=" M -1208 -1035 L -1208 965 L 792 965 L 792 -1035 L -1208 -1035 Z " fill="rgb(255,255,255)"/></clipPath><g clip-path="url(#_clipPath_7kILnprPeP59zS52shRmMb1XSinVoijF)"><path d=" M 370.415 132.807 C 370.415 119.608 370.415 106.408 370.415 93.203 C 329.58 99.638 287.592 121.967 249.025 158.642 L 249.025 158.642 C 287.715 139.922 329.175 131.325 370.415 132.807 Z " fill="rgb(61,152,211)"/></g><clipPath id="_clipPath_6BlTp5zRehiS2MYf02gQTipuj59jhWGK"><path d=" M -1208 -1035 L -1208 965 L 792 965 L 792 -1035 L -1208 -1035 Z " fill="rgb(255,255,255)"/></clipPath><g clip-path="url(#_clipPath_6BlTp5zRehiS2MYf02gQTipuj59jhWGK)"><path d=" M 370.415 294.95 C 370.415 240.902 370.415 186.855 370.415 132.807 C 329.175 131.325 287.715 139.922 249.025 158.642 L 249.025 158.642 C 249.025 240.477 249.025 322.313 249.025 404.148 C 287.777 334.598 331.662 295.12 370.415 294.95 Z " fill="rgb(65,133,197)"/></g><clipPath id="_clipPath_ZKxzzNayBrzk0zdWk2WhGVC2dJn87125"><path d=" M -1208 -1035 L -1208 965 L 792 965 L 792 -1035 L -1208 -1035 Z " fill="rgb(255,255,255)"/></clipPath><g clip-path="url(#_clipPath_ZKxzzNayBrzk0zdWk2WhGVC2dJn87125)"><path d=" M -499.52 891.195 C -499.52 892.953 -499.25 894.445 -498.703 895.68 C -498.155 896.915 -497.407 897.848 -496.458 898.468 C -495.508 899.098 -494.47 899.412 -493.35 899.412 C -492.208 899.412 -491.168 899.113 -490.225 898.518 C -489.282 897.925 -488.53 897.015 -487.97 895.788 C -487.407 894.56 -487.128 893.028 -487.128 891.195 C -487.128 889.465 -487.407 887.983 -487.97 886.735 C -488.53 885.498 -489.29 884.547 -490.25 883.89 C -491.208 883.235 -492.258 882.905 -493.395 882.905 C -494.583 882.905 -495.643 883.245 -496.578 883.913 C -497.51 884.588 -498.235 885.55 -498.75 886.81 C -499.265 888.07 -499.52 889.53 -499.52 891.195 Z  M -486.77 900.715 L -486.77 900.07 C -487.643 901.07 -488.5 901.883 -489.348 902.505 C -490.193 903.133 -491.113 903.608 -492.103 903.93 C -493.093 904.258 -494.17 904.418 -495.343 904.418 C -496.895 904.418 -498.333 904.093 -499.655 903.435 C -500.975 902.778 -502.118 901.838 -503.083 900.62 C -504.05 899.403 -504.78 897.97 -505.28 896.32 C -505.778 894.675 -506.028 892.893 -506.028 890.98 C -506.028 886.928 -505.037 883.767 -503.06 881.505 C -501.08 879.243 -498.478 878.11 -495.248 878.11 C -493.38 878.11 -491.805 878.433 -490.523 879.07 C -489.24 879.712 -487.99 880.7 -486.77 882.028 L -486.77 872.455 C -486.77 871.128 -486.508 870.123 -485.975 869.443 C -485.447 868.76 -484.69 868.423 -483.708 868.423 C -482.728 868.423 -481.97 868.735 -481.44 869.36 C -480.91 869.988 -480.645 870.903 -480.645 872.125 L -480.645 900.715 C -480.645 901.95 -480.928 902.873 -481.5 903.493 C -482.07 904.11 -482.803 904.418 -483.708 904.418 C -484.593 904.418 -485.325 904.1 -485.905 903.458 C -486.482 902.813 -486.77 901.903 -486.77 900.715 Z " fill="rgb(48,72,110)"/></g><clipPath id="_clipPath_o78Gs7aNR4SAn3Pg1mWGrn8moUJG8Byy"><path d=" M -1208 -1035 L -1208 965 L 792 965 L 792 -1035 L -1208 -1035 Z " fill="rgb(255,255,255)"/></clipPath><g clip-path="url(#_clipPath_o78Gs7aNR4SAn3Pg1mWGrn8moUJG8Byy)"><path d=" M -470.865 889.152 L -459.11 889.152 C -459.268 886.933 -459.868 885.275 -460.905 884.175 C -461.94 883.075 -463.305 882.528 -465 882.528 C -466.613 882.528 -467.94 883.08 -468.978 884.198 C -470.013 885.313 -470.643 886.965 -470.865 889.152 Z  M -458.188 892.833 L -470.865 892.833 C -470.85 894.303 -470.553 895.6 -469.973 896.725 C -469.398 897.853 -468.628 898.698 -467.67 899.267 C -466.713 899.84 -465.655 900.12 -464.5 900.12 C -463.728 900.12 -463.018 900.03 -462.375 899.85 C -461.733 899.663 -461.115 899.383 -460.51 898.995 C -459.907 898.608 -459.355 898.19 -458.85 897.748 C -458.343 897.3 -457.688 896.698 -456.878 895.938 C -456.545 895.655 -456.073 895.51 -455.45 895.51 C -454.788 895.51 -454.25 895.695 -453.84 896.06 C -453.428 896.425 -453.22 896.935 -453.22 897.603 C -453.22 898.19 -453.453 898.873 -453.908 899.655 C -454.373 900.443 -455.063 901.195 -455.988 901.915 C -456.915 902.633 -458.075 903.228 -459.48 903.705 C -460.878 904.183 -462.49 904.418 -464.313 904.418 C -468.473 904.418 -471.71 903.228 -474.023 900.857 C -476.333 898.485 -477.488 895.26 -477.488 891.195 C -477.488 889.278 -477.205 887.498 -476.635 885.863 C -476.063 884.223 -475.233 882.82 -474.143 881.645 C -473.05 880.475 -471.705 879.58 -470.103 878.953 C -468.508 878.328 -466.733 878.017 -464.785 878.017 C -462.253 878.017 -460.083 878.548 -458.27 879.62 C -456.455 880.683 -455.095 882.067 -454.198 883.758 C -453.295 885.455 -452.843 887.183 -452.843 888.935 C -452.843 890.57 -453.31 891.62 -454.243 892.11 C -455.175 892.59 -456.49 892.833 -458.188 892.833 Z " fill="rgb(48,72,110)"/></g><clipPath id="_clipPath_fsUY6jc9YoGghM8yIMJhbC8icPKjUXm0"><path d=" M -1208 -1035 L -1208 965 L 792 965 L 792 -1035 L -1208 -1035 Z " fill="rgb(255,255,255)"/></clipPath><g clip-path="url(#_clipPath_fsUY6jc9YoGghM8yIMJhbC8icPKjUXm0)"><path d=" M -428.648 895.938 C -428.648 897.728 -429.083 899.26 -429.955 900.538 C -430.823 901.81 -432.113 902.778 -433.813 903.435 C -435.513 904.093 -437.585 904.418 -440.023 904.418 C -442.35 904.418 -444.342 904.06 -446.008 903.35 C -447.668 902.64 -448.895 901.745 -449.685 900.68 C -450.478 899.61 -450.873 898.537 -450.873 897.46 C -450.873 896.748 -450.623 896.14 -450.113 895.633 C -449.608 895.13 -448.965 894.873 -448.188 894.873 C -447.51 894.873 -446.99 895.04 -446.625 895.37 C -446.26 895.705 -445.91 896.175 -445.58 896.77 C -444.915 897.933 -444.118 898.79 -443.19 899.363 C -442.268 899.932 -441.005 900.215 -439.405 900.215 C -438.105 900.215 -437.04 899.925 -436.21 899.35 C -435.38 898.767 -434.965 898.11 -434.965 897.363 C -434.965 896.225 -435.395 895.395 -436.26 894.873 C -437.123 894.35 -438.542 893.85 -440.52 893.375 C -442.753 892.823 -444.57 892.24 -445.97 891.63 C -447.373 891.025 -448.49 890.218 -449.33 889.223 C -450.168 888.225 -450.59 886.998 -450.59 885.54 C -450.59 884.245 -450.2 883.017 -449.425 881.86 C -448.648 880.705 -447.505 879.785 -445.99 879.098 C -444.483 878.403 -442.657 878.06 -440.52 878.06 C -438.843 878.06 -437.333 878.235 -436 878.587 C -434.66 878.93 -433.54 879.403 -432.648 879.988 C -431.753 880.57 -431.075 881.218 -430.608 881.93 C -430.143 882.645 -429.907 883.34 -429.907 884.023 C -429.907 884.765 -430.157 885.373 -430.655 885.853 C -431.153 886.32 -431.86 886.563 -432.78 886.563 C -433.448 886.563 -434.01 886.373 -434.478 885.99 C -434.945 885.613 -435.478 885.043 -436.08 884.285 C -436.573 883.653 -437.145 883.142 -437.813 882.763 C -438.477 882.382 -439.38 882.195 -440.52 882.195 C -441.695 882.195 -442.665 882.442 -443.44 882.945 C -444.218 883.438 -444.605 884.06 -444.605 884.805 C -444.605 885.485 -444.32 886.045 -443.75 886.478 C -443.18 886.915 -442.415 887.277 -441.445 887.558 C -440.48 887.843 -439.153 888.19 -437.458 888.6 C -435.448 889.098 -433.805 889.683 -432.53 890.363 C -431.258 891.037 -430.292 891.843 -429.633 892.773 C -428.978 893.698 -428.648 894.753 -428.648 895.938 Z " fill="rgb(48,72,110)"/></g><clipPath id="_clipPath_Rgo4HooLazzUfMEMFic8NqqXe3XRhUhP"><path d=" M -1208 -1035 L -1208 965 L 792 965 L 792 -1035 L -1208 -1035 Z " fill="rgb(255,255,255)"/></clipPath><g clip-path="url(#_clipPath_Rgo4HooLazzUfMEMFic8NqqXe3XRhUhP)"><path d=" M -418.82 881.743 L -418.82 900.475 C -418.82 901.775 -419.128 902.757 -419.748 903.422 C -420.365 904.087 -421.145 904.418 -422.098 904.418 C -423.05 904.418 -423.82 904.08 -424.413 903.398 C -425.008 902.715 -425.303 901.742 -425.303 900.475 L -425.303 881.93 C -425.303 880.653 -425.008 879.685 -424.413 879.035 C -423.82 878.385 -423.05 878.06 -422.098 878.06 C -421.145 878.06 -420.365 878.385 -419.748 879.035 C -419.128 879.685 -418.82 880.588 -418.82 881.743 Z  M -422.028 875.05 C -422.928 875.05 -423.7 874.768 -424.343 874.218 C -424.983 873.665 -425.303 872.88 -425.303 871.863 C -425.303 870.945 -424.975 870.192 -424.318 869.598 C -423.663 869 -422.895 868.705 -422.028 868.705 C -421.187 868.705 -420.445 868.975 -419.795 869.515 C -419.145 870.052 -418.82 870.832 -418.82 871.863 C -418.82 872.863 -419.138 873.642 -419.773 874.205 C -420.405 874.765 -421.155 875.05 -422.028 875.05 Z " fill="rgb(48,72,110)"/></g><clipPath id="_clipPath_YWQ1YhPWrkvF36f5C2cgW0t3EHpJ4k8o"><path d=" M -1208 -1035 L -1208 965 L 792 965 L 792 -1035 L -1208 -1035 Z " fill="rgb(255,255,255)"/></clipPath><g clip-path="url(#_clipPath_YWQ1YhPWrkvF36f5C2cgW0t3EHpJ4k8o)"><path d=" M -409.205 891.027 C -409.205 893.653 -408.633 895.642 -407.485 896.988 C -406.337 898.332 -404.853 899.007 -403.033 899.007 C -401.958 899.007 -400.94 898.715 -399.983 898.14 C -399.023 897.558 -398.245 896.687 -397.643 895.528 C -397.043 894.363 -396.74 892.953 -396.74 891.29 C -396.74 888.645 -397.323 886.587 -398.485 885.118 C -399.65 883.642 -401.18 882.905 -403.083 882.905 C -404.935 882.905 -406.418 883.61 -407.533 885.02 C -408.648 886.425 -409.205 888.433 -409.205 891.027 Z  M -390.423 882.81 L -390.423 901.64 C -390.423 903.793 -390.655 905.645 -391.115 907.198 C -391.57 908.748 -392.308 910.03 -393.323 911.045 C -394.335 912.055 -395.66 912.81 -397.298 913.298 C -398.938 913.79 -400.975 914.035 -403.415 914.035 C -405.645 914.035 -407.638 913.722 -409.398 913.097 C -411.153 912.467 -412.505 911.662 -413.458 910.675 C -414.405 909.685 -414.883 908.67 -414.883 907.623 C -414.883 906.83 -414.615 906.185 -414.073 905.69 C -413.537 905.19 -412.885 904.942 -412.128 904.942 C -411.178 904.942 -410.348 905.363 -409.635 906.198 C -409.288 906.623 -408.927 907.06 -408.555 907.495 C -408.183 907.933 -407.77 908.3 -407.32 908.61 C -406.868 908.915 -406.325 909.145 -405.695 909.3 C -405.06 909.445 -404.33 909.525 -403.51 909.525 C -401.83 909.525 -400.528 909.29 -399.603 908.82 C -398.675 908.357 -398.025 907.703 -397.655 906.863 C -397.28 906.028 -397.065 905.13 -397 904.17 C -396.937 903.208 -396.893 901.672 -396.858 899.547 C -397.858 900.945 -399.008 902.008 -400.315 902.735 C -401.62 903.462 -403.175 903.825 -404.98 903.825 C -407.148 903.825 -409.042 903.27 -410.667 902.163 C -412.29 901.055 -413.537 899.505 -414.405 897.508 C -415.278 895.51 -415.71 893.212 -415.71 890.6 C -415.71 888.653 -415.448 886.892 -414.917 885.33 C -414.385 883.758 -413.628 882.438 -412.648 881.363 C -411.667 880.285 -410.538 879.475 -409.253 878.925 C -407.973 878.382 -406.563 878.11 -405.028 878.11 C -403.193 878.11 -401.6 878.465 -400.253 879.162 C -398.91 879.873 -397.658 880.978 -396.503 882.478 L -396.503 881.6 C -396.503 880.475 -396.228 879.607 -395.673 878.988 C -395.118 878.373 -394.405 878.06 -393.533 878.06 C -392.283 878.06 -391.455 878.473 -391.043 879.285 C -390.63 880.1 -390.423 881.278 -390.423 882.81 Z " fill="rgb(48,72,110)"/></g><clipPath id="_clipPath_YV9vCEajK291QzUrXNh3G0QzzGEax7CI"><path d=" M -1208 -1035 L -1208 965 L 792 965 L 792 -1035 L -1208 -1035 Z " fill="rgb(255,255,255)"/></clipPath><g clip-path="url(#_clipPath_YV9vCEajK291QzUrXNh3G0QzzGEax7CI)"><path d=" M -380.123 881.645 L -380.123 882.432 C -378.982 880.925 -377.738 879.823 -376.383 879.118 C -375.03 878.413 -373.475 878.06 -371.718 878.06 C -370.008 878.06 -368.478 878.435 -367.133 879.18 C -365.79 879.925 -364.78 880.978 -364.118 882.333 C -363.688 883.125 -363.415 883.985 -363.288 884.9 C -363.16 885.82 -363.095 886.988 -363.095 888.413 L -363.095 900.475 C -363.095 901.775 -363.393 902.757 -363.988 903.422 C -364.58 904.087 -365.353 904.418 -366.3 904.418 C -367.27 904.418 -368.053 904.08 -368.653 903.398 C -369.255 902.715 -369.555 901.742 -369.555 900.475 L -369.555 889.672 C -369.555 887.537 -369.853 885.9 -370.447 884.768 C -371.04 883.64 -372.223 883.07 -373.998 883.07 C -375.15 883.07 -376.205 883.413 -377.155 884.103 C -378.105 884.795 -378.8 885.743 -379.243 886.943 C -379.56 887.91 -379.718 889.712 -379.718 892.353 L -379.718 900.475 C -379.718 901.79 -380.025 902.778 -380.633 903.435 C -381.24 904.093 -382.028 904.418 -382.993 904.418 C -383.93 904.418 -384.695 904.08 -385.297 903.398 C -385.898 902.715 -386.2 901.742 -386.2 900.475 L -386.2 881.743 C -386.2 880.507 -385.933 879.582 -385.395 878.975 C -384.855 878.365 -384.118 878.06 -383.187 878.06 C -382.615 878.06 -382.1 878.195 -381.64 878.468 C -381.183 878.738 -380.813 879.14 -380.537 879.675 C -380.26 880.215 -380.123 880.873 -380.123 881.645 Z " fill="rgb(48,72,110)"/></g><clipPath id="_clipPath_2KkTC1HiM0Ai2Kaud4icLOCqde2Fsiqx"><path d=" M -1208 -1035 L -1208 965 L 792 965 L 792 -1035 L -1208 -1035 Z " fill="rgb(255,255,255)"/></clipPath><g clip-path="url(#_clipPath_2KkTC1HiM0Ai2Kaud4icLOCqde2Fsiqx)"><path d=" M -353.365 889.152 L -341.61 889.152 C -341.768 886.933 -342.365 885.275 -343.403 884.175 C -344.44 883.075 -345.805 882.528 -347.498 882.528 C -349.113 882.528 -350.44 883.08 -351.478 884.198 C -352.515 885.313 -353.143 886.965 -353.365 889.152 Z  M -340.685 892.833 L -353.365 892.833 C -353.345 894.303 -353.053 895.6 -352.473 896.725 C -351.895 897.853 -351.128 898.698 -350.168 899.267 C -349.215 899.84 -348.155 900.12 -347 900.12 C -346.225 900.12 -345.518 900.03 -344.875 899.85 C -344.235 899.663 -343.615 899.383 -343.01 898.995 C -342.41 898.608 -341.858 898.19 -341.345 897.748 C -340.843 897.3 -340.188 896.698 -339.378 895.938 C -339.045 895.655 -338.573 895.51 -337.953 895.51 C -337.288 895.51 -336.75 895.695 -336.338 896.06 C -335.925 896.425 -335.72 896.935 -335.72 897.603 C -335.72 898.19 -335.95 898.873 -336.41 899.655 C -336.87 900.443 -337.563 901.195 -338.488 901.915 C -339.415 902.633 -340.575 903.228 -341.978 903.705 C -343.378 904.183 -344.99 904.418 -346.81 904.418 C -350.973 904.418 -354.21 903.228 -356.523 900.857 C -358.833 898.485 -359.988 895.26 -359.988 891.195 C -359.988 889.278 -359.705 887.498 -359.135 885.863 C -358.565 884.223 -357.733 882.82 -356.64 881.645 C -355.55 880.475 -354.2 879.58 -352.603 878.953 C -351.008 878.328 -349.23 878.017 -347.283 878.017 C -344.753 878.017 -342.583 878.548 -340.77 879.62 C -338.955 880.683 -337.598 882.067 -336.695 883.758 C -335.793 885.455 -335.343 887.183 -335.343 888.935 C -335.343 890.57 -335.807 891.62 -336.743 892.11 C -337.675 892.59 -338.99 892.833 -340.685 892.833 Z " fill="rgb(48,72,110)"/></g><clipPath id="_clipPath_u9LV60iMvRlYuBLu38JLOAveK2JTJWTt"><path d=" M -1208 -1035 L -1208 965 L 792 965 L 792 -1035 L -1208 -1035 Z " fill="rgb(255,255,255)"/></clipPath><g clip-path="url(#_clipPath_u9LV60iMvRlYuBLu38JLOAveK2JTJWTt)"><path d=" M -327.01 891.195 C -327.01 892.953 -326.74 894.445 -326.19 895.68 C -325.645 896.915 -324.898 897.848 -323.945 898.468 C -322.998 899.098 -321.96 899.412 -320.838 899.412 C -319.698 899.412 -318.655 899.113 -317.715 898.518 C -316.773 897.925 -316.02 897.015 -315.458 895.788 C -314.895 894.56 -314.615 893.028 -314.615 891.195 C -314.615 889.465 -314.895 887.983 -315.458 886.735 C -316.02 885.498 -316.78 884.547 -317.74 883.89 C -318.698 883.235 -319.745 882.905 -320.885 882.905 C -322.07 882.905 -323.133 883.245 -324.065 883.913 C -325 884.588 -325.725 885.55 -326.238 886.81 C -326.753 888.07 -327.01 889.53 -327.01 891.195 Z  M -314.26 900.715 L -314.26 900.07 C -315.133 901.07 -315.988 901.883 -316.835 902.505 C -317.685 903.133 -318.6 903.608 -319.59 903.93 C -320.578 904.258 -321.658 904.418 -322.83 904.418 C -324.385 904.418 -325.82 904.093 -327.14 903.435 C -328.463 902.778 -329.605 901.838 -330.573 900.62 C -331.54 899.403 -332.27 897.97 -332.768 896.32 C -333.268 894.675 -333.518 892.893 -333.518 890.98 C -333.518 886.928 -332.528 883.767 -330.55 881.505 C -328.57 879.243 -325.965 878.11 -322.738 878.11 C -320.868 878.11 -319.293 878.433 -318.01 879.07 C -316.728 879.712 -315.478 880.7 -314.26 882.028 L -314.26 872.455 C -314.26 871.128 -313.993 870.123 -313.465 869.443 C -312.935 868.76 -312.175 868.423 -311.195 868.423 C -310.215 868.423 -309.46 868.735 -308.927 869.36 C -308.398 869.988 -308.133 870.903 -308.133 872.125 L -308.133 900.715 C -308.133 901.95 -308.417 902.873 -308.988 903.493 C -309.558 904.11 -310.292 904.418 -311.195 904.418 C -312.083 904.418 -312.813 904.1 -313.393 903.458 C -313.97 902.813 -314.26 901.903 -314.26 900.715 Z " fill="rgb(48,72,110)"/></g><clipPath id="_clipPath_PbsHGWDsQ1FGK5V6RHXgypjUzWxYqNhy"><path d=" M -1208 -1035 L -1208 965 L 792 965 L 792 -1035 L -1208 -1035 Z " fill="rgb(255,255,255)"/></clipPath><g clip-path="url(#_clipPath_PbsHGWDsQ1FGK5V6RHXgypjUzWxYqNhy)"><path d=" M -287.458 891.383 C -287.458 893.965 -286.865 895.945 -285.688 897.33 C -284.51 898.715 -282.96 899.412 -281.045 899.412 C -279.415 899.412 -278.01 898.703 -276.833 897.285 C -275.653 895.865 -275.063 893.837 -275.063 891.195 C -275.063 889.485 -275.305 888.007 -275.798 886.778 C -276.29 885.54 -276.983 884.588 -277.885 883.913 C -278.79 883.245 -279.843 882.905 -281.045 882.905 C -282.28 882.905 -283.383 883.245 -284.345 883.913 C -285.313 884.588 -286.073 885.56 -286.625 886.835 C -287.177 888.108 -287.458 889.625 -287.458 891.383 Z  M -287.765 872.125 L -287.765 882.028 C -286.548 880.76 -285.302 879.787 -284.038 879.118 C -282.77 878.445 -281.203 878.11 -279.335 878.11 C -277.18 878.11 -275.295 878.62 -273.67 879.638 C -272.053 880.665 -270.793 882.142 -269.895 884.08 C -269.003 886.018 -268.553 888.32 -268.553 890.98 C -268.553 892.945 -268.803 894.74 -269.303 896.383 C -269.803 898.017 -270.528 899.44 -271.475 900.642 C -272.428 901.843 -273.575 902.778 -274.93 903.435 C -276.285 904.093 -277.778 904.418 -279.405 904.418 C -280.405 904.418 -281.343 904.3 -282.22 904.06 C -283.1 903.825 -283.848 903.515 -284.465 903.123 C -285.08 902.738 -285.608 902.34 -286.043 901.925 C -286.478 901.515 -287.052 900.892 -287.765 900.07 L -287.765 900.715 C -287.765 901.933 -288.058 902.855 -288.645 903.485 C -289.228 904.11 -289.973 904.418 -290.875 904.418 C -291.793 904.418 -292.528 904.11 -293.073 903.485 C -293.618 902.855 -293.89 901.933 -293.89 900.715 L -293.89 872.41 C -293.89 871.095 -293.625 870.1 -293.098 869.43 C -292.565 868.758 -291.823 868.423 -290.875 868.423 C -289.878 868.423 -289.11 868.743 -288.573 869.383 C -288.035 870.028 -287.765 870.935 -287.765 872.125 Z " fill="rgb(48,72,110)"/></g><clipPath id="_clipPath_8Zj88t6jVQDujSwVhn0pQT6ZS0nr18qz"><path d=" M -1208 -1035 L -1208 965 L 792 965 L 792 -1035 L -1208 -1035 Z " fill="rgb(255,255,255)"/></clipPath><g clip-path="url(#_clipPath_8Zj88t6jVQDujSwVhn0pQT6ZS0nr18qz)"><path d=" M -260.15 905.228 L -259.558 903.778 L -267.535 883.688 C -268.025 882.537 -268.273 881.695 -268.273 881.173 C -268.273 880.618 -268.128 880.103 -267.845 879.632 C -267.56 879.152 -267.168 878.775 -266.67 878.49 C -266.17 878.202 -265.653 878.06 -265.115 878.06 C -264.18 878.06 -263.478 878.36 -263 878.953 C -262.523 879.545 -262.105 880.393 -261.743 881.505 L -256.258 897.46 L -251.055 882.62 C -250.645 881.42 -250.273 880.475 -249.94 879.795 C -249.608 879.113 -249.258 878.653 -248.885 878.42 C -248.513 878.18 -247.988 878.06 -247.305 878.06 C -246.813 878.06 -246.343 878.19 -245.893 878.455 C -245.44 878.715 -245.093 879.067 -244.848 879.51 C -244.603 879.953 -244.478 880.42 -244.478 880.91 C -244.543 881.21 -244.645 881.637 -244.788 882.195 C -244.93 882.748 -245.103 883.31 -245.31 883.88 L -253.763 906.008 C -254.493 907.958 -255.205 909.483 -255.903 910.59 C -256.598 911.697 -257.52 912.553 -258.668 913.142 C -259.815 913.738 -261.363 914.035 -263.31 914.035 C -265.208 914.035 -266.635 913.83 -267.583 913.42 C -268.533 913.005 -269.008 912.253 -269.008 911.163 C -269.008 910.42 -268.783 909.842 -268.33 909.44 C -267.88 909.038 -267.21 908.83 -266.325 908.83 C -265.978 908.83 -265.635 908.883 -265.303 908.978 C -264.893 909.07 -264.538 909.12 -264.238 909.12 C -263.493 909.12 -262.905 909.01 -262.478 908.787 C -262.053 908.568 -261.668 908.183 -261.325 907.633 C -260.988 907.09 -260.593 906.287 -260.15 905.228 Z " fill="rgb(48,72,110)"/></g><clipPath id="_clipPath_HrqzqB5SF9onasAUON8ynRP4tNlxkgv9"><path d=" M -1208 -1035 L -1208 965 L 792 965 L 792 -1035 L -1208 -1035 Z " fill="rgb(255,255,255)"/></clipPath><g clip-path="url(#_clipPath_HrqzqB5SF9onasAUON8ynRP4tNlxkgv9)"><path d=" M -166.243 878.623 L -164.698 878.623 L -164.698 876.675 C -164.698 874.64 -164.448 873.035 -163.93 871.83 C -163.42 870.635 -162.54 869.768 -161.313 869.22 C -160.088 868.678 -158.405 868.403 -156.273 868.403 C -152.473 868.403 -150.59 869.323 -150.59 871.192 C -150.59 871.788 -150.788 872.3 -151.19 872.728 C -151.578 873.153 -152.048 873.37 -152.585 873.37 C -152.835 873.37 -153.28 873.32 -153.903 873.218 C -154.498 873.135 -155.033 873.08 -155.46 873.08 C -156.63 873.08 -157.378 873.433 -157.725 874.118 C -158.043 874.808 -158.213 875.788 -158.213 877.08 L -158.213 878.623 L -156.63 878.623 C -154.153 878.623 -152.928 879.363 -152.928 880.863 C -152.928 881.91 -153.245 882.587 -153.908 882.87 C -154.563 883.16 -155.468 883.297 -156.63 883.297 L -158.213 883.297 L -158.213 900.475 C -158.213 901.755 -158.513 902.728 -159.135 903.398 C -159.738 904.08 -160.52 904.415 -161.49 904.415 C -162.41 904.415 -163.168 904.08 -163.785 903.398 C -164.398 902.728 -164.698 901.755 -164.698 900.475 L -164.698 883.297 L -166.483 883.297 C -167.453 883.297 -168.188 883.09 -168.715 882.645 C -169.238 882.218 -169.503 881.645 -169.503 880.953 C -169.503 879.392 -168.415 878.623 -166.243 878.623 Z " fill="rgb(48,72,110)"/></g><clipPath id="_clipPath_OzxGpikXOMKq9tx5IzFoHWnph0kglK4d"><path d=" M -1208 -1035 L -1208 965 L 792 965 L 792 -1035 L -1208 -1035 Z " fill="rgb(255,255,255)"/></clipPath><g clip-path="url(#_clipPath_OzxGpikXOMKq9tx5IzFoHWnph0kglK4d)"><path d=" M -145.02 895.058 L -145.02 900.475 C -145.02 901.788 -145.35 902.775 -145.955 903.425 C -146.572 904.093 -147.35 904.415 -148.298 904.415 C -149.253 904.415 -150.018 904.087 -150.615 903.413 C -151.205 902.755 -151.515 901.77 -151.515 900.475 L -151.515 882.423 C -151.515 879.508 -150.465 878.05 -148.365 878.05 C -147.28 878.05 -146.505 878.385 -146.03 879.07 C -145.555 879.752 -145.293 880.755 -145.237 882.09 C -144.468 880.755 -143.678 879.752 -142.865 879.07 C -142.035 878.385 -140.96 878.05 -139.593 878.05 C -138.22 878.05 -136.91 878.385 -135.63 879.07 C -134.34 879.752 -133.7 880.662 -133.7 881.78 C -133.7 882.568 -133.978 883.233 -134.515 883.735 C -135.065 884.257 -135.653 884.515 -136.28 884.515 C -136.53 884.515 -137.11 884.358 -138.013 884.063 C -138.925 883.78 -139.733 883.632 -140.42 883.632 C -141.37 883.632 -142.15 883.89 -142.748 884.375 C -143.355 884.89 -143.825 885.62 -144.16 886.593 C -144.483 887.58 -144.708 888.758 -144.84 890.103 C -144.963 891.457 -145.02 893.113 -145.02 895.058 Z " fill="rgb(48,72,110)"/></g><clipPath id="_clipPath_Mwo7VfO9UTdHUe25AbYIT88UKJyVHLHb"><path d=" M -1208 -1035 L -1208 965 L 792 965 L 792 -1035 L -1208 -1035 Z " fill="rgb(255,255,255)"/></clipPath><g clip-path="url(#_clipPath_Mwo7VfO9UTdHUe25AbYIT88UKJyVHLHb)"><path d=" M -127.903 889.14 L -116.15 889.14 C -116.305 886.928 -116.895 885.265 -117.935 884.175 C -118.98 883.07 -120.333 882.525 -122.035 882.525 C -123.65 882.525 -124.978 883.073 -126.015 884.195 C -127.05 885.31 -127.685 886.955 -127.903 889.14 Z  M -115.218 892.828 L -127.903 892.828 C -127.88 894.298 -127.593 895.6 -127.015 896.723 C -126.428 897.84 -125.665 898.688 -124.705 899.265 C -123.743 899.833 -122.695 900.113 -121.533 900.113 C -120.758 900.113 -120.05 900.03 -119.408 899.837 C -118.775 899.663 -118.148 899.373 -117.545 898.985 C -116.94 898.6 -116.395 898.185 -115.885 897.735 C -115.38 897.297 -114.718 896.695 -113.91 895.935 C -113.572 895.655 -113.1 895.503 -112.49 895.503 C -111.818 895.503 -111.285 895.685 -110.865 896.058 C -110.45 896.422 -110.258 896.933 -110.258 897.6 C -110.258 898.185 -110.48 898.87 -110.928 899.648 C -111.395 900.443 -112.085 901.188 -113.018 901.915 C -113.953 902.625 -115.115 903.233 -116.51 903.698 C -117.91 904.175 -119.525 904.415 -121.34 904.415 C -125.518 904.415 -128.75 903.233 -131.058 900.86 C -133.365 898.478 -134.535 895.255 -134.535 891.188 C -134.535 889.27 -134.243 887.492 -133.668 885.853 C -133.105 884.208 -132.273 882.81 -131.17 881.633 C -130.08 880.458 -128.745 879.56 -127.138 878.935 C -125.545 878.315 -123.773 878.003 -121.818 878.003 C -119.293 878.003 -117.115 878.537 -115.303 879.615 C -113.493 880.675 -112.118 882.058 -111.23 883.75 C -110.328 885.455 -109.875 887.172 -109.875 888.935 C -109.875 890.56 -110.345 891.613 -111.28 892.103 C -112.213 892.583 -113.523 892.828 -115.218 892.828 Z " fill="rgb(48,72,110)"/></g><clipPath id="_clipPath_r3N0pQPgnLL2tiHiQ94I2KIPcIgfRqsM"><path d=" M -1208 -1035 L -1208 965 L 792 965 L 792 -1035 L -1208 -1035 Z " fill="rgb(255,255,255)"/></clipPath><g clip-path="url(#_clipPath_r3N0pQPgnLL2tiHiQ94I2KIPcIgfRqsM)"><path d=" M -100.933 889.14 L -89.18 889.14 C -89.338 886.928 -89.938 885.265 -90.968 884.175 C -92.018 883.07 -93.37 882.525 -95.073 882.525 C -96.688 882.525 -98.013 883.073 -99.055 884.195 C -100.088 885.31 -100.723 886.955 -100.933 889.14 Z  M -88.25 892.828 L -100.933 892.828 C -100.918 894.298 -100.62 895.6 -100.045 896.723 C -99.468 897.84 -98.697 898.688 -97.743 899.265 C -96.788 899.833 -95.73 900.113 -94.565 900.113 C -93.795 900.113 -93.083 900.03 -92.453 899.837 C -91.805 899.663 -91.188 899.373 -90.578 898.985 C -89.973 898.6 -89.428 898.185 -88.918 897.735 C -88.42 897.297 -87.758 896.695 -86.948 895.935 C -86.61 895.655 -86.133 895.503 -85.528 895.503 C -84.855 895.503 -84.318 895.685 -83.9 896.058 C -83.488 896.422 -83.3 896.933 -83.3 897.6 C -83.3 898.185 -83.518 898.87 -83.985 899.648 C -84.425 900.443 -85.123 901.188 -86.06 901.915 C -86.985 902.625 -88.158 903.233 -89.548 903.698 C -90.943 904.175 -92.568 904.415 -94.385 904.415 C -98.553 904.415 -101.783 903.233 -104.1 900.86 C -106.41 898.478 -107.573 895.255 -107.573 891.188 C -107.573 889.27 -107.283 887.492 -106.703 885.853 C -106.138 884.208 -105.308 882.81 -104.213 881.633 C -103.125 880.458 -101.783 879.56 -100.178 878.935 C -98.583 878.315 -96.803 878.003 -94.855 878.003 C -92.333 878.003 -90.16 878.537 -88.323 879.615 C -86.523 880.675 -85.158 882.058 -84.27 883.75 C -83.37 885.455 -82.908 887.172 -82.908 888.935 C -82.908 890.56 -83.385 891.613 -84.31 892.103 C -85.248 892.583 -86.56 892.828 -88.25 892.828 Z " fill="rgb(48,72,110)"/></g><clipPath id="_clipPath_D8xZCOxLrTC6X0aI7YzG0O20Y7MS1j7I"><path d=" M -1208 -1035 L -1208 965 L 792 965 L 792 -1035 L -1208 -1035 Z " fill="rgb(255,255,255)"/></clipPath><g clip-path="url(#_clipPath_D8xZCOxLrTC6X0aI7YzG0O20Y7MS1j7I)"><path d=" M -61.34 891.113 C -61.34 889.405 -61.605 887.933 -62.125 886.708 C -62.648 885.475 -63.373 884.538 -64.293 883.89 C -65.21 883.233 -66.248 882.895 -67.373 882.895 C -69.158 882.895 -70.668 883.608 -71.895 885.008 C -73.125 886.422 -73.743 888.495 -73.743 891.238 C -73.743 893.805 -73.133 895.82 -71.905 897.255 C -70.685 898.688 -69.19 899.403 -67.373 899.403 C -66.3 899.403 -65.298 899.087 -64.38 898.473 C -63.453 897.84 -62.718 896.905 -62.17 895.655 C -61.618 894.4 -61.34 892.883 -61.34 891.113 Z  M -74.05 881.695 L -74.05 882.473 C -72.835 880.973 -71.565 879.868 -70.24 879.162 C -68.943 878.453 -67.443 878.093 -65.783 878.093 C -63.795 878.093 -61.945 878.613 -60.265 879.638 C -58.588 880.675 -57.27 882.175 -56.293 884.152 C -55.32 886.142 -54.828 888.478 -54.828 891.188 C -54.828 893.178 -55.11 895.017 -55.668 896.693 C -56.228 898.363 -57.01 899.758 -57.99 900.89 C -58.975 902.018 -60.13 902.893 -61.465 903.505 C -62.82 904.11 -64.243 904.415 -65.783 904.415 C -67.63 904.415 -69.195 904.04 -70.448 903.295 C -71.703 902.565 -72.903 901.463 -74.05 900.03 L -74.05 909.762 C -74.05 912.6 -75.09 914.038 -77.16 914.038 C -78.385 914.038 -79.183 913.673 -79.59 912.938 C -79.967 912.193 -80.173 911.13 -80.173 909.713 L -80.173 881.725 C -80.173 880.488 -79.908 879.58 -79.373 878.957 C -78.835 878.363 -78.092 878.05 -77.16 878.05 C -76.238 878.05 -75.495 878.363 -74.923 878.985 C -74.333 879.62 -74.05 880.507 -74.05 881.695 Z " fill="rgb(48,72,110)"/></g><clipPath id="_clipPath_rpS49x4hh9RMSEr5UAaADrwB79nqMdAv"><path d=" M -1208 -1035 L -1208 965 L 792 965 L 792 -1035 L -1208 -1035 Z " fill="rgb(255,255,255)"/></clipPath><g clip-path="url(#_clipPath_rpS49x4hh9RMSEr5UAaADrwB79nqMdAv)"><path d=" M -45.09 881.725 L -45.09 900.483 C -45.09 901.77 -45.4 902.755 -46.015 903.413 C -46.64 904.087 -47.418 904.415 -48.368 904.415 C -49.32 904.415 -50.08 904.08 -50.688 903.398 C -51.273 902.705 -51.578 901.735 -51.578 900.483 L -51.578 881.915 C -51.578 880.64 -51.273 879.675 -50.688 879.028 C -50.08 878.365 -49.32 878.05 -48.368 878.05 C -47.418 878.05 -46.64 878.365 -46.015 879.028 C -45.4 879.675 -45.09 880.58 -45.09 881.725 Z  M -48.3 875.03 C -49.205 875.03 -49.973 874.745 -50.608 874.195 C -51.258 873.635 -51.578 872.863 -51.578 871.85 C -51.578 870.933 -51.25 870.175 -50.585 869.578 C -49.93 868.99 -49.17 868.688 -48.3 868.688 C -47.45 868.688 -46.71 868.955 -46.068 869.488 C -45.418 870.035 -45.09 870.82 -45.09 871.85 C -45.09 872.853 -45.408 873.63 -46.035 874.192 C -46.67 874.745 -47.423 875.03 -48.3 875.03 Z " fill="rgb(48,72,110)"/></g><clipPath id="_clipPath_lVI582ffB4ILVaPXDg6Fqgra6cEzcViZ"><path d=" M -1208 -1035 L -1208 965 L 792 965 L 792 -1035 L -1208 -1035 Z " fill="rgb(255,255,255)"/></clipPath><g clip-path="url(#_clipPath_lVI582ffB4ILVaPXDg6Fqgra6cEzcViZ)"><path d=" M -24.193 901.455 L -29.903 892.038 L -33.423 895.363 L -33.423 900.525 C -33.423 901.77 -33.755 902.728 -34.413 903.398 C -35.055 904.08 -35.83 904.415 -36.68 904.415 C -37.675 904.415 -38.468 904.087 -39.03 903.413 C -39.598 902.755 -39.89 901.77 -39.89 900.475 L -39.89 872.82 C -39.89 871.385 -39.605 870.29 -39.063 869.535 C -38.505 868.775 -37.7 868.403 -36.68 868.403 C -35.68 868.403 -34.898 868.748 -34.305 869.433 C -33.72 870.11 -33.423 871.118 -33.423 872.438 L -33.423 888.172 L -26.133 880.515 C -25.228 879.573 -24.55 878.913 -24.065 878.57 C -23.59 878.223 -23.018 878.05 -22.34 878.05 C -21.525 878.05 -20.858 878.307 -20.303 878.82 C -19.775 879.335 -19.503 879.985 -19.503 880.755 C -19.503 881.703 -20.385 882.975 -22.138 884.558 L -25.58 887.715 L -18.933 898.172 C -18.45 898.955 -18.085 899.53 -17.873 899.935 C -17.663 900.333 -17.548 900.735 -17.548 901.093 C -17.548 902.123 -17.835 902.925 -18.4 903.527 C -18.963 904.12 -19.71 904.415 -20.615 904.415 C -21.405 904.415 -22.023 904.212 -22.448 903.775 C -22.873 903.34 -23.468 902.565 -24.193 901.455 Z " fill="rgb(48,72,110)"/></g><clipPath id="_clipPath_WA7yHtm7bFSvMqP758ElegxF4MXtgXKK"><path d=" M -1208 -1035 L -1208 965 L 792 965 L 792 -1035 L -1208 -1035 Z " fill="rgb(255,255,255)"/></clipPath><g clip-path="url(#_clipPath_WA7yHtm7bFSvMqP758ElegxF4MXtgXKK)"><path d=" M -10.103 904.415 C -11.08 904.415 -11.92 904.1 -12.635 903.462 C -13.348 902.84 -13.708 901.945 -13.708 900.797 C -13.708 899.837 -13.365 899.005 -12.683 898.31 C -11.998 897.613 -11.165 897.265 -10.163 897.265 C -9.17 897.265 -8.325 897.613 -7.608 898.295 C -6.908 898.985 -6.553 899.828 -6.553 900.797 C -6.553 901.93 -6.908 902.82 -7.608 903.448 C -8.325 904.1 -9.155 904.415 -10.103 904.415 Z " fill="rgb(48,72,110)"/></g><clipPath id="_clipPath_hpI6cUBwguxkG63XhfXwBmrXY8caRRA2"><path d=" M -1208 -1035 L -1208 965 L 792 965 L 792 -1035 L -1208 -1035 Z " fill="rgb(255,255,255)"/></clipPath><g clip-path="url(#_clipPath_hpI6cUBwguxkG63XhfXwBmrXY8caRRA2)"><path d=" M 22.145 896.39 C 22.145 897.188 21.902 898.06 21.417 898.975 C 20.937 899.9 20.195 900.77 19.202 901.6 C 18.215 902.428 16.972 903.103 15.465 903.608 C 13.962 904.113 12.262 904.373 10.387 904.373 C 6.372 904.373 3.242 903.2 0.995 900.873 C -1.245 898.53 -2.37 895.395 -2.37 891.473 C -2.37 888.803 -1.86 886.455 -0.823 884.412 C 0.195 882.373 1.687 880.79 3.63 879.675 C 5.58 878.558 7.92 878.003 10.615 878.003 C 12.3 878.003 13.835 878.248 15.247 878.738 C 16.647 879.225 17.827 879.868 18.81 880.635 C 19.775 881.422 20.522 882.245 21.032 883.118 C 21.55 883.998 21.802 884.82 21.802 885.585 C 21.802 886.353 21.52 887.015 20.945 887.553 C 20.357 888.09 19.657 888.363 18.847 888.363 C 18.303 888.363 17.855 888.223 17.495 887.948 C 17.137 887.665 16.735 887.225 16.3 886.593 C 15.505 885.395 14.682 884.488 13.81 883.895 C 12.952 883.288 11.857 882.988 10.525 882.988 C 8.62 882.988 7.065 883.735 5.892 885.235 C 4.722 886.723 4.135 888.785 4.135 891.37 C 4.135 892.59 4.29 893.715 4.59 894.738 C 4.882 895.758 5.317 896.628 5.892 897.348 C 6.467 898.067 7.152 898.61 7.957 898.985 C 8.767 899.367 9.657 899.547 10.615 899.547 C 11.92 899.547 13.032 899.248 13.957 898.645 C 14.897 898.045 15.712 897.13 16.425 895.89 C 16.82 895.163 17.242 894.598 17.695 894.183 C 18.152 893.775 18.72 893.56 19.385 893.56 C 20.177 893.56 20.835 893.868 21.35 894.465 C 21.877 895.065 22.145 895.712 22.145 896.39 Z " fill="rgb(48,72,110)"/></g><clipPath id="_clipPath_m7vLqF0bMlde4ZBMvsfP65bg9SHZmkv2"><path d=" M -1208 -1035 L -1208 965 L 792 965 L 792 -1035 L -1208 -1035 Z " fill="rgb(255,255,255)"/></clipPath><g clip-path="url(#_clipPath_m7vLqF0bMlde4ZBMvsfP65bg9SHZmkv2)"><path d=" M 43.612 891.238 C 43.612 888.593 43.025 886.535 41.865 885.065 C 40.707 883.578 39.14 882.848 37.18 882.848 C 35.91 882.848 34.792 883.175 33.822 883.83 C 32.857 884.485 32.122 885.455 31.6 886.738 C 31.077 888.025 30.81 889.525 30.81 891.238 C 30.81 892.935 31.067 894.405 31.585 895.672 C 32.105 896.945 32.84 897.912 33.8 898.587 C 34.762 899.253 35.887 899.598 37.18 899.598 C 39.14 899.598 40.707 898.858 41.865 897.367 C 43.025 895.89 43.612 893.84 43.612 891.238 Z  M 50.12 891.238 C 50.12 893.162 49.815 894.948 49.232 896.583 C 48.615 898.215 47.752 899.615 46.607 900.78 C 45.47 901.953 44.102 902.853 42.527 903.48 C 40.927 904.1 39.152 904.418 37.18 904.418 C 35.217 904.418 33.447 904.1 31.877 903.462 C 30.32 902.84 28.95 901.925 27.812 900.758 C 26.66 899.565 25.792 898.172 25.182 896.563 C 24.61 894.955 24.307 893.178 24.307 891.238 C 24.307 889.27 24.617 887.473 25.202 885.84 C 25.807 884.208 26.675 882.81 27.8 881.66 C 28.927 880.505 30.282 879.615 31.877 878.985 C 33.487 878.363 35.252 878.05 37.18 878.05 C 39.14 878.05 40.925 878.363 42.527 879.005 C 44.122 879.632 45.485 880.54 46.635 881.703 C 47.782 882.887 48.642 884.275 49.237 885.882 C 49.82 887.508 50.12 889.28 50.12 891.238 Z " fill="rgb(48,72,110)"/></g><clipPath id="_clipPath_h1gKIm7cPLWBSpJhUKiVyXKp42ouLwPI"><path d=" M -1208 -1035 L -1208 965 L 792 965 L 792 -1035 L -1208 -1035 Z " fill="rgb(255,255,255)"/></clipPath><g clip-path="url(#_clipPath_h1gKIm7cPLWBSpJhUKiVyXKp42ouLwPI)"><path d=" M 74.85 891.715 L 74.85 900.33 C 74.85 901.695 74.55 902.705 73.927 903.398 C 73.302 904.08 72.497 904.418 71.482 904.418 C 70.5 904.418 69.697 904.08 69.105 903.398 C 68.487 902.705 68.175 901.695 68.175 900.33 L 68.175 890 C 68.175 888.37 68.122 887.098 68.015 886.192 C 67.9 885.308 67.595 884.55 67.11 883.985 C 66.62 883.392 65.837 883.103 64.782 883.103 C 62.657 883.103 61.265 883.83 60.592 885.308 C 59.922 886.748 59.575 888.84 59.575 891.573 L 59.575 900.33 C 59.575 901.675 59.27 902.695 58.672 903.388 C 58.05 904.07 57.255 904.418 56.26 904.418 C 55.273 904.418 54.467 904.07 53.842 903.388 C 53.212 902.695 52.902 901.675 52.902 900.33 L 52.902 881.78 C 52.902 880.56 53.182 879.632 53.74 879.005 C 54.315 878.363 55.057 878.05 55.965 878.05 C 56.855 878.05 57.592 878.357 58.195 878.935 C 58.785 879.533 59.08 880.353 59.08 881.4 L 59.08 882.01 C 60.212 880.675 61.417 879.683 62.69 879.06 C 63.982 878.41 65.395 878.093 66.972 878.093 C 68.602 878.093 70 878.423 71.167 879.07 C 72.342 879.723 73.302 880.705 74.067 882.01 C 75.168 880.69 76.34 879.705 77.592 879.06 C 78.842 878.415 80.225 878.093 81.747 878.093 C 83.512 878.093 85.052 878.453 86.332 879.143 C 87.607 879.84 88.565 880.84 89.202 882.132 C 89.755 883.31 90.027 885.155 90.027 887.672 L 90.027 900.33 C 90.027 901.695 89.722 902.705 89.11 903.398 C 88.495 904.08 87.672 904.418 86.66 904.418 C 85.675 904.418 84.875 904.07 84.247 903.388 C 83.622 902.695 83.307 901.675 83.307 900.33 L 83.307 889.425 C 83.307 888.028 83.25 886.918 83.135 886.083 C 83.017 885.238 82.692 884.53 82.177 883.965 C 81.647 883.392 80.852 883.103 79.795 883.103 C 78.94 883.103 78.13 883.373 77.362 883.873 C 76.595 884.37 75.995 885.065 75.56 885.903 C 75.095 887 74.85 888.935 74.85 891.715 Z " fill="rgb(48,72,110)"/></g><clipPath id="_clipPath_ppRebZQqQKsFXyOKFOcunvEiNUxDgNzX"><path d=" M -1208 -1035 L -1208 965 L 792 965 L 792 -1035 L -1208 -1035 Z " fill="rgb(255,255,255)"/></clipPath><g clip-path="url(#_clipPath_ppRebZQqQKsFXyOKFOcunvEiNUxDgNzX)"><path d=" M -226.913 889.665 C -226.918 889.653 -226.918 889.642 -226.918 889.623 C -226.918 889.642 -226.918 889.653 -226.913 889.665 Z " fill="rgb(48,72,110)"/></g><clipPath id="_clipPath_tZ2fq2J54WwkqDnsUjCYs3dBf9LdQx7L"><path d=" M -1208 -1035 L -1208 965 L 792 965 L 792 -1035 L -1208 -1035 Z " fill="rgb(255,255,255)"/></clipPath><g clip-path="url(#_clipPath_tZ2fq2J54WwkqDnsUjCYs3dBf9LdQx7L)"><path d=" M -226.588 891.738 C -226.583 891.738 -226.583 891.738 -226.58 891.738 C -226.703 891.15 -226.8 890.563 -226.875 889.985 C -226.8 890.57 -226.703 891.155 -226.588 891.738 Z " fill="rgb(48,72,110)"/></g><clipPath id="_clipPath_EvbAYnlZph1wuslIm0k0tftMY4MoBXwt"><path d=" M -1208 -1035 L -1208 965 L 792 965 L 792 -1035 L -1208 -1035 Z " fill="rgb(255,255,255)"/></clipPath><g clip-path="url(#_clipPath_EvbAYnlZph1wuslIm0k0tftMY4MoBXwt)"><path d=" M -224.44 897.757 C -224.455 897.732 -224.468 897.703 -224.483 897.672 C -224.468 897.703 -224.455 897.732 -224.44 897.757 Z " fill="rgb(48,72,110)"/></g><clipPath id="_clipPath_NJ6PeD156Lwt233LJxQtz49ZmInP97Rx"><path d=" M -1208 -1035 L -1208 965 L 792 965 L 792 -1035 L -1208 -1035 Z " fill="rgb(255,255,255)"/></clipPath><g clip-path="url(#_clipPath_NJ6PeD156Lwt233LJxQtz49ZmInP97Rx)"><path d=" M -224.645 897.353 C -224.703 897.245 -224.755 897.132 -224.81 897.02 C -224.755 897.138 -224.703 897.245 -224.645 897.353 Z " fill="rgb(48,72,110)"/></g><clipPath id="_clipPath_lCGlW4BNdneyvhDij5390Jdptkl6uduE"><path d=" M -1208 -1035 L -1208 965 L 792 965 L 792 -1035 L -1208 -1035 Z " fill="rgb(255,255,255)"/></clipPath><g clip-path="url(#_clipPath_lCGlW4BNdneyvhDij5390Jdptkl6uduE)"><path d=" M -225.983 894.058 C -225.665 895.058 -225.285 896.027 -224.84 896.953 C -225.293 896.008 -225.665 895.037 -225.975 894.058 C -225.978 894.058 -225.98 894.058 -225.983 894.058 Z " fill="rgb(48,72,110)"/></g><clipPath id="_clipPath_zujizbkatwFrPchcamMGbWSCPC00jXXb"><path d=" M -1208 -1035 L -1208 965 L 792 965 L 792 -1035 L -1208 -1035 Z " fill="rgb(255,255,255)"/></clipPath><g clip-path="url(#_clipPath_zujizbkatwFrPchcamMGbWSCPC00jXXb)"><path d=" M -201.818 864.828 C -200.565 864.828 -199.64 864.925 -198.58 865.103 L -198.28 863.195 C -198.28 863.195 -201.208 862.298 -205.058 862.613 L -205.36 861.573 C -204.165 861.32 -203.265 860.257 -203.265 858.988 C -203.265 857.535 -204.45 856.353 -205.91 856.353 C -207.368 856.353 -208.548 857.535 -208.548 858.988 C -208.548 860.257 -207.653 861.32 -206.458 861.573 L -206.125 862.732 C -210.21 863.29 -213.463 864.885 -213.463 864.885 L -212.885 866.65 C -210.413 865.828 -208.27 865.328 -206.325 865.118 C -204.42 864.915 -202.988 864.828 -201.818 864.828 Z " fill="rgb(48,72,110)"/></g><clipPath id="_clipPath_U64iaB1njKHsI84xfscEebGMjkWg5E17"><path d=" M -1208 -1035 L -1208 965 L 792 965 L 792 -1035 L -1208 -1035 Z " fill="rgb(255,255,255)"/></clipPath><g clip-path="url(#_clipPath_U64iaB1njKHsI84xfscEebGMjkWg5E17)"><path d=" M -224.49 874.473 L -224.475 874.452 C -224.378 874.328 -224.285 874.212 -224.192 874.098 L -224.975 873.53 L -226.193 872.642 C -226.263 872.738 -228.18 874.5 -229.698 877.76 C -229.76 877.658 -229.835 877.558 -229.923 877.463 C -230.375 876.965 -231.01 876.715 -231.818 876.725 C -231.828 876.725 -231.84 876.725 -231.855 876.725 C -232.353 876.725 -232.695 876.56 -232.92 876.36 C -232.698 876.078 -232.563 875.718 -232.563 875.328 C -232.563 874.405 -233.313 873.653 -234.238 873.653 C -235.158 873.653 -235.908 874.405 -235.908 875.328 C -235.908 876.25 -235.158 876.998 -234.238 876.998 C -234.093 876.998 -233.953 876.975 -233.82 876.945 C -233.408 877.403 -232.755 877.8 -231.8 877.78 C -231.307 877.778 -230.948 877.902 -230.708 878.173 C -230.43 878.475 -230.335 878.91 -230.308 879.238 C -230.31 879.245 -230.31 879.253 -230.315 879.253 C -231.403 882.228 -231.093 885.925 -231.093 885.925 L -228.45 886.03 C -228.395 884.685 -228.203 882.328 -227.52 880.458 C -226.205 876.83 -224.558 874.567 -224.49 874.473 Z " fill="rgb(48,72,110)"/></g><clipPath id="_clipPath_s7rliBpyHu0U5q80sfUDA5adV9oejG3D"><path d=" M -1208 -1035 L -1208 965 L 792 965 L 792 -1035 L -1208 -1035 Z " fill="rgb(255,255,255)"/></clipPath><g clip-path="url(#_clipPath_s7rliBpyHu0U5q80sfUDA5adV9oejG3D)"><path d=" M -178.82 867.035 C -179.74 867.035 -180.493 867.78 -180.493 868.705 C -180.493 868.85 -180.47 868.988 -180.435 869.12 C -180.893 869.535 -181.29 870.19 -181.278 871.145 C -181.27 871.64 -181.395 871.998 -181.663 872.238 C -181.875 872.425 -182.14 872.528 -182.403 872.59 C -184.37 869.833 -186.793 868.153 -186.793 868.153 L -188.688 870.185 C -187.255 871.488 -185.79 873.123 -184.368 875.16 C -183.383 876.57 -182.37 878.385 -181.528 880.195 L -178.968 878.982 C -178.968 878.982 -180.135 876.093 -181.783 873.502 C -181.495 873.403 -181.208 873.248 -180.955 873.02 C -180.453 872.57 -180.208 871.93 -180.223 871.128 C -180.228 870.608 -180.055 870.257 -179.85 870.025 C -179.565 870.24 -179.208 870.38 -178.82 870.38 C -177.893 870.38 -177.145 869.632 -177.145 868.705 C -177.145 867.78 -177.893 867.035 -178.82 867.035 Z " fill="rgb(48,72,110)"/></g><clipPath id="_clipPath_oNXT3C3fcKAhBzMJQDL6TK7TqGQl4WjY"><path d=" M -1208 -1035 L -1208 965 L 792 965 L 792 -1035 L -1208 -1035 Z " fill="rgb(255,255,255)"/></clipPath><g clip-path="url(#_clipPath_oNXT3C3fcKAhBzMJQDL6TK7TqGQl4WjY)"><path d=" M -185.463 890.04 C -188.988 891.758 -194.785 894.025 -202.418 895.09 C -205.413 895.505 -208.315 895.66 -210.988 895.66 C -214.465 895.66 -217.538 895.4 -219.895 895.1 C -222.585 894.762 -224.688 894.348 -225.975 894.058 C -225.665 895.037 -225.293 896.008 -224.84 896.953 C -224.833 896.975 -224.823 897.005 -224.81 897.02 C -224.755 897.132 -224.703 897.245 -224.645 897.353 C -224.593 897.465 -224.538 897.57 -224.483 897.672 C -224.468 897.703 -224.455 897.732 -224.44 897.757 C -223.683 899.183 -222.775 900.492 -221.74 901.628 C -218.14 905.567 -214.47 906.188 -214.438 906.195 L -214.38 906.2 L -214.325 906.218 C -214.293 906.233 -211.04 907.28 -206.098 907.28 C -201.233 907.28 -196.46 906.3 -191.91 904.363 C -188.543 902.643 -185.355 900.025 -183.778 897.69 C -182.555 895.882 -181.675 893.955 -181.153 891.955 C -180.873 890.89 -180.655 889.185 -180.783 887.392 C -181.775 888.06 -183.343 889.007 -185.463 890.04 Z " fill="rgb(48,72,110)"/></g><clipPath id="_clipPath_gdjokBBF3bvOAjtybNDbFkNTSh6WR6r6"><path d=" M -1208 -1035 L -1208 965 L 792 965 L 792 -1035 L -1208 -1035 Z " fill="rgb(255,255,255)"/></clipPath><g clip-path="url(#_clipPath_gdjokBBF3bvOAjtybNDbFkNTSh6WR6r6)"><path d=" M -213.288 873.468 C -209.398 873.468 -206.245 876.62 -206.245 880.507 C -206.245 884.4 -209.398 887.547 -213.288 887.547 C -217.175 887.547 -220.328 884.4 -220.328 880.507 C -220.328 876.62 -217.175 873.468 -213.288 873.468 Z  M -192.683 873.64 C -190.28 873.64 -188.325 875.59 -188.325 877.998 C -188.325 880.402 -190.28 882.358 -192.683 882.358 C -195.088 882.358 -197.038 880.402 -197.038 877.998 C -197.038 875.59 -195.088 873.64 -192.683 873.64 Z  M -223.358 875.308 C -223.46 875.458 -224.988 877.62 -226.195 880.938 C -227.1 883.425 -227.06 887.047 -227.06 887.09 L -227.06 887.098 C -227.06 887.945 -227.013 888.79 -226.918 889.623 C -226.918 889.642 -226.918 889.653 -226.913 889.665 C -226.905 889.775 -226.885 889.878 -226.875 889.985 C -226.8 890.563 -226.703 891.15 -226.58 891.738 C -224.828 892.185 -214.383 894.623 -202.708 892.995 C -195.39 891.975 -189.833 889.813 -186.46 888.178 C -183.658 886.82 -181.855 885.588 -181.16 885.08 C -181.853 882.51 -183.765 878.48 -185.518 875.968 C -190.53 868.802 -195.935 866.965 -198.71 866.507 C -199.77 866.333 -200.618 866.235 -201.818 866.235 C -202.938 866.235 -204.323 866.325 -206.178 866.517 C -208.035 866.715 -210.108 867.203 -212.508 868.007 C -215.878 869.137 -218.928 870.905 -221.325 873.13 L -221.408 873.205 C -221.763 873.53 -222.505 874.22 -223.358 875.308 Z " fill="rgb(48,72,110)"/></g></g></g></svg>