<?xml version="1.0" standalone="no"?><!-- Generator: Gravit.io --><svg xmlns="http://www.w3.org/2000/svg" xmlns:xlink="http://www.w3.org/1999/xlink" style="isolation:isolate" viewBox="0 0 490.319 490.319" width="490.319" height="490.319"><defs><clipPath id="_clipPath_K1WofykwiE98A9Eb2optj1C0buPlNQt2"><rect width="490.319" height="490.319"/></clipPath></defs><g clip-path="url(#_clipPath_K1WofykwiE98A9Eb2optj1C0buPlNQt2)"><path d=" M 0 0 L 0 490.319 L 490.319 490.319 L 490.319 0 L 0 0 Z " fill="none"/><clipPath id="_clipPath_7jlghdK6j1m8HmBYPROsYDXFaC2awtnZ"><path d=" M 0 0 L 0 490.319 L 490.319 490.319 L 490.319 0 L 0 0 Z " fill="rgb(255,255,255)"/></clipPath><g clip-path="url(#_clipPath_7jlghdK6j1m8HmBYPROsYDXFaC2awtnZ)"><path d=" M 116.231 157.672 C 114.45 157.672 112.772 156.586 112.103 154.823 L 109.981 149.237 C 108.979 149.386 107.978 149.459 106.983 149.459 C 105.53 149.459 104.092 149.304 102.688 149.008 L 100.233 154.471 C 99.498 156.107 97.889 157.078 96.205 157.078 C 95.6 157.078 94.985 156.952 94.398 156.688 C 92.173 155.688 91.181 153.075 92.18 150.851 L 94.636 145.388 C 92.691 143.953 90.982 142.174 89.621 140.087 L 84.036 142.209 C 83.52 142.404 82.99 142.497 82.469 142.497 C 80.688 142.497 79.011 141.413 78.341 139.649 C 77.475 137.37 78.622 134.82 80.9 133.954 L 86.486 131.833 C 86.118 129.368 86.215 126.903 86.716 124.539 L 81.254 122.084 C 79.029 121.084 78.037 118.471 79.037 116.248 C 79.772 114.611 81.38 113.642 83.065 113.642 C 83.67 113.642 84.285 113.767 84.873 114.031 L 90.336 116.487 C 91.771 114.542 93.55 112.834 95.637 111.473 L 93.515 105.887 C 92.649 103.607 93.795 101.058 96.074 100.192 C 96.59 99.997 97.12 99.903 97.641 99.903 C 99.421 99.903 101.099 100.988 101.769 102.751 L 103.891 108.338 C 104.893 108.189 105.894 108.116 106.889 108.116 C 108.342 108.116 109.781 108.27 111.184 108.567 L 113.639 103.104 C 114.375 101.468 115.984 100.498 117.669 100.498 C 118.274 100.498 118.889 100.623 119.475 100.887 C 120.588 101.387 121.392 102.29 121.793 103.346 C 122.194 104.403 122.192 105.612 121.692 106.724 L 119.237 112.187 C 121.181 113.623 122.89 115.401 124.251 117.488 L 129.836 115.366 C 130.352 115.17 130.882 115.077 131.402 115.077 C 133.183 115.077 134.861 116.162 135.531 117.926 C 136.397 120.206 135.25 122.755 132.971 123.62 L 127.386 125.742 C 127.754 128.207 127.656 130.671 127.155 133.035 L 132.619 135.491 C 133.731 135.99 134.536 136.894 134.937 137.949 C 135.339 139.006 135.336 140.215 134.837 141.327 C 134.101 142.963 132.492 143.933 130.808 143.933 C 130.203 143.933 129.587 143.808 129 143.544 L 123.537 141.088 C 122.101 143.032 120.322 144.741 118.235 146.102 L 120.357 151.688 C 121.222 153.967 120.076 156.517 117.798 157.382 C 117.281 157.579 116.752 157.672 116.231 157.672 Z  M 106.924 116.932 C 105.527 116.932 104.107 117.181 102.727 117.706 C 96.615 120.027 93.532 126.887 95.853 132.997 C 97.65 137.728 102.166 140.643 106.949 140.643 C 108.345 140.643 109.765 140.395 111.145 139.87 C 111.768 139.634 112.35 139.339 112.908 139.013 C 113.614 138.519 114.297 137.987 114.924 137.384 L 114.967 137.497 L 115.159 137.323 L 115.041 137.27 C 115.733 136.592 116.377 135.861 116.953 135.078 L 116.966 135.073 C 118.866 132.034 119.387 128.179 118.019 124.578 C 116.221 119.848 111.707 116.932 106.924 116.932 Z " fill="rgb(222,221,221)"/></g><clipPath id="_clipPath_iJGYZXcT8RJUzJbwIsgaIAiCNbT0V9e7"><path d=" M 0 0 L 0 490.319 L 490.319 490.319 L 490.319 0 L 0 0 Z " fill="rgb(255,255,255)"/></clipPath><g clip-path="url(#_clipPath_iJGYZXcT8RJUzJbwIsgaIAiCNbT0V9e7)"><path d=" M 143.33 108.778 C 141.662 108.778 140.276 107.46 140.21 105.777 L 140.041 101.55 C 138.304 101.243 136.671 100.624 135.197 99.756 L 132.32 102.872 C 131.704 103.54 130.864 103.878 130.023 103.878 C 129.265 103.878 128.504 103.603 127.904 103.049 C 126.635 101.877 126.555 99.9 127.727 98.633 L 130.603 95.516 C 129.621 94.115 128.872 92.537 128.428 90.83 L 124.202 90.999 C 124.158 91 124.116 91.001 124.074 91.001 C 122.406 91.001 121.02 89.682 120.953 88 C 120.884 86.275 122.228 84.821 123.952 84.752 L 128.179 84.583 C 128.486 82.846 129.105 81.213 129.973 79.738 L 126.857 76.862 C 125.588 75.691 125.511 73.712 126.682 72.445 C 127.298 71.778 128.136 71.44 128.978 71.44 C 129.736 71.44 130.496 71.714 131.097 72.269 L 134.213 75.145 C 135.614 74.163 137.192 73.416 138.899 72.971 L 138.731 68.744 C 138.661 67.019 140.005 65.565 141.729 65.496 C 141.772 65.494 141.814 65.493 141.856 65.493 C 143.524 65.493 144.91 66.812 144.976 68.494 L 145.146 72.722 C 146.883 73.029 148.516 73.648 149.99 74.515 L 152.868 71.4 C 153.483 70.732 154.323 70.394 155.165 70.394 C 155.923 70.394 156.683 70.668 157.284 71.223 C 157.919 71.808 158.255 72.596 158.288 73.395 C 158.319 74.194 158.045 75.006 157.46 75.64 L 154.584 78.756 C 155.566 80.157 156.313 81.735 156.759 83.442 L 160.985 83.273 C 161.028 83.271 161.07 83.27 161.112 83.27 C 162.781 83.27 164.167 84.589 164.233 86.272 C 164.302 87.996 162.959 89.451 161.234 89.52 L 157.008 89.688 C 156.7 91.425 156.081 93.058 155.213 94.533 L 158.33 97.41 C 158.964 97.995 159.301 98.783 159.333 99.582 C 159.365 100.381 159.092 101.192 158.506 101.826 C 157.89 102.494 157.051 102.833 156.209 102.833 C 155.451 102.833 154.691 102.558 154.09 102.003 L 150.974 99.126 C 149.573 100.108 147.994 100.856 146.287 101.301 L 146.456 105.527 C 146.525 107.253 145.182 108.707 143.457 108.775 C 143.415 108.777 143.373 108.778 143.33 108.778 Z  M 142.597 78.742 C 142.485 78.742 142.372 78.745 142.258 78.749 C 137.633 78.934 134.022 82.846 134.206 87.471 C 134.387 91.982 138.113 95.529 142.589 95.529 C 142.701 95.529 142.814 95.527 142.928 95.523 C 143.399 95.504 143.857 95.437 144.304 95.344 C 144.889 95.171 145.467 94.967 146.024 94.703 L 146.027 94.789 L 146.195 94.715 L 146.128 94.653 C 146.746 94.353 147.342 94.008 147.904 93.611 L 147.914 93.611 C 149.873 91.997 151.089 89.526 150.98 86.801 C 150.8 82.29 147.073 78.742 142.597 78.742 Z " fill="rgb(222,221,221)"/></g><clipPath id="_clipPath_vV8aOUsiIzKlPuv8isM3w4PtLNFLbUoZ"><path d=" M 0 0 L 0 490.319 L 490.319 490.319 L 490.319 0 L 0 0 Z " fill="rgb(255,255,255)"/></clipPath><g clip-path="url(#_clipPath_vV8aOUsiIzKlPuv8isM3w4PtLNFLbUoZ)"><path d=" M 380.814 242.054 C 380.002 242.054 379.343 241.396 379.343 240.583 L 379.343 224.239 C 379.343 223.426 380.002 222.768 380.814 222.768 C 381.626 222.768 382.285 223.426 382.285 224.239 L 382.285 240.583 C 382.285 241.396 381.626 242.054 380.814 242.054 Z " fill="rgb(222,221,221)"/></g><clipPath id="_clipPath_BxnwkBF322ErEll4TCYcplCmiy7zczLU"><path d=" M 0 0 L 0 490.319 L 490.319 490.319 L 490.319 0 L 0 0 Z " fill="rgb(255,255,255)"/></clipPath><g clip-path="url(#_clipPath_BxnwkBF322ErEll4TCYcplCmiy7zczLU)"><path d=" M 388.986 233.882 L 372.642 233.882 C 371.83 233.882 371.171 233.224 371.171 232.411 C 371.171 231.598 371.83 230.94 372.642 230.94 L 388.986 230.94 C 389.798 230.94 390.457 231.598 390.457 232.411 C 390.457 233.224 389.798 233.882 388.986 233.882 Z " fill="rgb(222,221,221)"/></g><clipPath id="_clipPath_39lcVHJmS1DXfwaXpEDsBIGUOWE0K9Ky"><path d=" M 0 0 L 0 490.319 L 490.319 490.319 L 490.319 0 L 0 0 Z " fill="rgb(255,255,255)"/></clipPath><g clip-path="url(#_clipPath_39lcVHJmS1DXfwaXpEDsBIGUOWE0K9Ky)"><path d=" M 430.441 202.397 C 430.065 202.397 429.689 202.253 429.401 201.965 C 428.827 201.392 428.827 200.459 429.401 199.885 L 440.958 188.328 C 441.533 187.754 442.464 187.754 443.038 188.328 C 443.613 188.902 443.613 189.835 443.038 190.408 L 431.481 201.965 C 431.194 202.253 430.818 202.397 430.441 202.397 Z " fill="rgb(222,221,221)"/></g><clipPath id="_clipPath_ESYH9shzqUkHudb35xdT934gEAwZQjaQ"><path d=" M 0 0 L 0 490.319 L 490.319 490.319 L 490.319 0 L 0 0 Z " fill="rgb(255,255,255)"/></clipPath><g clip-path="url(#_clipPath_ESYH9shzqUkHudb35xdT934gEAwZQjaQ)"><path d=" M 441.999 202.397 C 441.622 202.397 441.246 202.253 440.958 201.965 L 429.401 190.408 C 428.827 189.835 428.827 188.902 429.401 188.328 C 429.976 187.754 430.907 187.754 431.481 188.328 L 443.038 199.885 C 443.613 200.459 443.613 201.392 443.038 201.965 C 442.751 202.253 442.374 202.397 441.999 202.397 Z " fill="rgb(222,221,221)"/></g><clipPath id="_clipPath_0eNrOf6dIPA1YP3DJxHmqb8zSCdmW3fm"><path d=" M 0 0 L 0 490.319 L 490.319 490.319 L 490.319 0 L 0 0 Z " fill="rgb(255,255,255)"/></clipPath><g clip-path="url(#_clipPath_0eNrOf6dIPA1YP3DJxHmqb8zSCdmW3fm)"><path d=" M 121.599 337.503 C 120.786 337.503 120.128 336.844 120.128 336.032 L 120.128 319.688 C 120.128 318.876 120.786 318.217 121.599 318.217 C 122.412 318.217 123.07 318.876 123.07 319.688 L 123.07 336.032 C 123.07 336.844 122.412 337.503 121.599 337.503 Z " fill="rgb(222,221,221)"/></g><clipPath id="_clipPath_WrcuUECVjtiEYADpvfl5egpA7TiyiMLx"><path d=" M 0 0 L 0 490.319 L 490.319 490.319 L 490.319 0 L 0 0 Z " fill="rgb(255,255,255)"/></clipPath><g clip-path="url(#_clipPath_WrcuUECVjtiEYADpvfl5egpA7TiyiMLx)"><path d=" M 129.771 329.33 L 113.427 329.33 C 112.614 329.33 111.956 328.671 111.956 327.859 C 111.956 327.047 112.614 326.388 113.427 326.388 L 129.771 326.388 C 130.584 326.388 131.242 327.047 131.242 327.859 C 131.242 328.671 130.584 329.33 129.771 329.33 Z " fill="rgb(222,221,221)"/></g><clipPath id="_clipPath_4wrFPRCiKdMkg8UPPk2QmPCwbjuDBIcX"><path d=" M 0 0 L 0 490.319 L 490.319 490.319 L 490.319 0 L 0 0 Z " fill="rgb(255,255,255)"/></clipPath><g clip-path="url(#_clipPath_4wrFPRCiKdMkg8UPPk2QmPCwbjuDBIcX)"><path d=" M 36.494 290.432 C 36.118 290.432 35.742 290.289 35.454 290.002 C 34.88 289.427 34.88 288.496 35.454 287.921 L 47.011 276.364 C 47.586 275.79 48.517 275.79 49.091 276.364 C 49.666 276.939 49.666 277.869 49.091 278.444 L 37.534 290.002 C 37.247 290.289 36.871 290.432 36.494 290.432 Z " fill="rgb(222,221,221)"/></g><clipPath id="_clipPath_ivIvRl3QQHujF5r0178RT7HKpFJAmJU0"><path d=" M 0 0 L 0 490.319 L 490.319 490.319 L 490.319 0 L 0 0 Z " fill="rgb(255,255,255)"/></clipPath><g clip-path="url(#_clipPath_ivIvRl3QQHujF5r0178RT7HKpFJAmJU0)"><path d=" M 48.051 290.432 C 47.675 290.432 47.298 290.289 47.011 290.002 L 35.454 278.444 C 34.88 277.869 34.88 276.939 35.454 276.364 C 36.029 275.79 36.96 275.79 37.534 276.364 L 49.091 287.921 C 49.666 288.496 49.666 289.427 49.091 290.002 C 48.804 290.289 48.428 290.432 48.051 290.432 Z " fill="rgb(222,221,221)"/></g><clipPath id="_clipPath_LR3xofh9EtWEo57B6waXNwYUZEawHJP6"><path d=" M 0 0 L 0 490.319 L 490.319 490.319 L 490.319 0 L 0 0 Z " fill="rgb(255,255,255)"/></clipPath><g clip-path="url(#_clipPath_LR3xofh9EtWEo57B6waXNwYUZEawHJP6)"><path d=" M 50.993 57.367 C 50.181 57.367 49.522 56.709 49.522 55.896 L 49.522 39.553 C 49.522 38.74 50.181 38.082 50.993 38.082 C 51.806 38.082 52.464 38.74 52.464 39.553 L 52.464 55.896 C 52.464 56.709 51.806 57.367 50.993 57.367 Z " fill="rgb(222,221,221)"/></g><clipPath id="_clipPath_QiBvtd8HgDespfV2yV76upTLXjZlaEit"><path d=" M 0 0 L 0 490.319 L 490.319 490.319 L 490.319 0 L 0 0 Z " fill="rgb(255,255,255)"/></clipPath><g clip-path="url(#_clipPath_QiBvtd8HgDespfV2yV76upTLXjZlaEit)"><path d=" M 59.165 49.195 L 42.821 49.195 C 42.008 49.195 41.35 48.537 41.35 47.724 C 41.35 46.912 42.008 46.253 42.821 46.253 L 59.165 46.253 C 59.978 46.253 60.636 46.912 60.636 47.724 C 60.636 48.537 59.978 49.195 59.165 49.195 Z " fill="rgb(222,221,221)"/></g><clipPath id="_clipPath_EtZ9bljALmgQURnHSrLjPwPn6lJuRzGy"><path d=" M 0 0 L 0 490.319 L 490.319 490.319 L 490.319 0 L 0 0 Z " fill="rgb(255,255,255)"/></clipPath><g clip-path="url(#_clipPath_EtZ9bljALmgQURnHSrLjPwPn6lJuRzGy)"><path d=" M 432.788 378.036 C 431.976 378.036 431.317 377.377 431.317 376.565 L 431.317 360.22 C 431.317 359.408 431.976 358.749 432.788 358.749 C 433.6 358.749 434.259 359.408 434.259 360.22 L 434.259 376.565 C 434.259 377.377 433.6 378.036 432.788 378.036 Z " fill="rgb(222,221,221)"/></g><clipPath id="_clipPath_d0m3f8uRhJb0bv4fhQXtBa0aaKNTdwnG"><path d=" M 0 0 L 0 490.319 L 490.319 490.319 L 490.319 0 L 0 0 Z " fill="rgb(255,255,255)"/></clipPath><g clip-path="url(#_clipPath_d0m3f8uRhJb0bv4fhQXtBa0aaKNTdwnG)"><path d=" M 440.96 369.864 L 424.616 369.864 C 423.804 369.864 423.145 369.205 423.145 368.393 C 423.145 367.581 423.804 366.922 424.616 366.922 L 440.96 366.922 C 441.772 366.922 442.431 367.581 442.431 368.393 C 442.431 369.205 441.772 369.864 440.96 369.864 Z " fill="rgb(222,221,221)"/></g><clipPath id="_clipPath_94VbO2b8s5ex0oSWaIXp0zQKWejZ2nEI"><path d=" M 0 0 L 0 490.319 L 490.319 490.319 L 490.319 0 L 0 0 Z " fill="rgb(255,255,255)"/></clipPath><g clip-path="url(#_clipPath_94VbO2b8s5ex0oSWaIXp0zQKWejZ2nEI)"><path d=" M 106.832 244.237 C 106.455 244.237 106.078 244.093 105.791 243.806 C 105.216 243.231 105.216 242.3 105.791 241.726 L 117.349 230.168 C 117.923 229.594 118.854 229.594 119.429 230.168 C 120.004 230.743 120.004 231.675 119.429 232.248 L 107.871 243.806 C 107.584 244.093 107.208 244.237 106.832 244.237 Z " fill="rgb(222,221,221)"/></g><clipPath id="_clipPath_4kQNz6pjOqDs5o5iLodH4nbinAbgNsJT"><path d=" M 0 0 L 0 490.319 L 490.319 490.319 L 490.319 0 L 0 0 Z " fill="rgb(255,255,255)"/></clipPath><g clip-path="url(#_clipPath_4kQNz6pjOqDs5o5iLodH4nbinAbgNsJT)"><path d=" M 118.388 244.237 C 118.012 244.237 117.635 244.093 117.349 243.806 L 105.791 232.248 C 105.216 231.675 105.216 230.743 105.791 230.168 C 106.366 229.594 107.297 229.594 107.871 230.168 L 119.429 241.726 C 120.004 242.3 120.004 243.231 119.429 243.806 C 119.142 244.093 118.765 244.237 118.388 244.237 Z " fill="rgb(222,221,221)"/></g><clipPath id="_clipPath_Fdz1kYrqsUnop55rOpinOEbJcrtYI6es"><path d=" M 0 0 L 0 490.319 L 490.319 490.319 L 490.319 0 L 0 0 Z " fill="rgb(255,255,255)"/></clipPath><g clip-path="url(#_clipPath_Fdz1kYrqsUnop55rOpinOEbJcrtYI6es)"><path d=" M 392.85 59.223 C 392.475 59.223 392.098 59.08 391.811 58.792 C 391.236 58.218 391.236 57.286 391.811 56.712 L 403.368 45.155 C 403.942 44.581 404.873 44.581 405.447 45.155 C 406.022 45.729 406.022 46.661 405.447 47.235 L 393.891 58.792 C 393.603 59.08 393.227 59.223 392.85 59.223 Z " fill="rgb(222,221,221)"/></g><clipPath id="_clipPath_4TEGgLjhkihUZxppW5N1pZKGWCGY4djT"><path d=" M 0 0 L 0 490.319 L 490.319 490.319 L 490.319 0 L 0 0 Z " fill="rgb(255,255,255)"/></clipPath><g clip-path="url(#_clipPath_4TEGgLjhkihUZxppW5N1pZKGWCGY4djT)"><path d=" M 404.408 59.223 C 404.031 59.223 403.655 59.08 403.368 58.792 L 391.811 47.235 C 391.236 46.661 391.236 45.729 391.811 45.155 C 392.385 44.581 393.316 44.581 393.891 45.155 L 405.447 56.712 C 406.022 57.286 406.022 58.218 405.447 58.792 C 405.16 59.08 404.784 59.223 404.408 59.223 Z " fill="rgb(222,221,221)"/></g><clipPath id="_clipPath_33gJMoDKxEoaPyLbYuaUKk9bQzegv04k"><path d=" M 0 0 L 0 490.319 L 490.319 490.319 L 490.319 0 L 0 0 Z " fill="rgb(255,255,255)"/></clipPath><g clip-path="url(#_clipPath_33gJMoDKxEoaPyLbYuaUKk9bQzegv04k)"><path d=" M 245.159 420.314 C 160.638 420.314 92.119 416.244 92.119 411.225 C 92.119 406.207 160.638 402.138 245.159 402.138 C 329.68 402.138 398.201 406.207 398.201 411.225 C 398.201 416.244 329.68 420.314 245.159 420.314 Z " fill="rgb(222,221,221)"/></g><clipPath id="_clipPath_FjXj5nTDhIVU4xaTfSpfBLb71U2eluR1"><path d=" M 0 0 L 0 490.319 L 490.319 490.319 L 490.319 0 L 0 0 Z " fill="rgb(255,255,255)"/></clipPath><g clip-path="url(#_clipPath_FjXj5nTDhIVU4xaTfSpfBLb71U2eluR1)"><path d=" M 240.797 61.522 L 281.148 122.23 L 355.668 135.316 L 314.592 73.155 L 240.797 61.522 Z " fill="rgb(62,71,80)"/></g><clipPath id="_clipPath_wY4MTrD52UwZugrvPE3gXUDWNLVN2wGk"><path d=" M 0 0 L 0 490.319 L 490.319 490.319 L 490.319 0 L 0 0 Z " fill="rgb(255,255,255)"/></clipPath><g clip-path="url(#_clipPath_wY4MTrD52UwZugrvPE3gXUDWNLVN2wGk)"><path d=" M 240.797 61.522 L 239.706 62.613 L 354.578 136.407 L 355.668 135.316 L 240.797 61.522 Z " fill="rgb(62,71,80)"/></g><clipPath id="_clipPath_vU5H2mDWzjbcp1VtJvnbxHcmZ8KMR9XU"><path d=" M 0 0 L 0 490.319 L 490.319 490.319 L 490.319 0 L 0 0 Z " fill="rgb(255,255,255)"/></clipPath><g clip-path="url(#_clipPath_vU5H2mDWzjbcp1VtJvnbxHcmZ8KMR9XU)"><path d=" M 239.706 62.613 L 280.057 123.32 L 354.578 136.407 L 313.5 74.245 L 239.706 62.613 Z " fill="rgb(52,57,62)"/></g><clipPath id="_clipPath_6se6EsgYSq643GHIOSJ8ipc1cfzcRLAV"><path d=" M 0 0 L 0 490.319 L 490.319 490.319 L 490.319 0 L 0 0 Z " fill="rgb(255,255,255)"/></clipPath><g clip-path="url(#_clipPath_6se6EsgYSq643GHIOSJ8ipc1cfzcRLAV)"><path d=" M 324.407 117.864 L 316.325 131.082 L 305.507 148.771 L 249.888 112.411 C 250.336 111.375 257.719 101.005 263.618 92.781 C 267.643 87.197 270.97 82.607 270.97 82.607 C 295.682 82.933 313.534 94.613 324.407 117.864 Z " fill="rgb(62,71,80)"/></g><clipPath id="_clipPath_zMlRlXAQIJEliikEbiHnGvo1ql4l9ekW"><path d=" M 0 0 L 0 490.319 L 490.319 490.319 L 490.319 0 L 0 0 Z " fill="rgb(255,255,255)"/></clipPath><g clip-path="url(#_clipPath_zMlRlXAQIJEliikEbiHnGvo1ql4l9ekW)"><path d=" M 282.733 83.722 C 279.001 83.038 275.083 82.661 270.97 82.607 C 270.97 82.607 267.643 87.197 263.618 92.781 C 257.719 101.005 250.336 111.375 249.888 112.411 L 259.051 118.401 C 266.594 106.752 274.248 94.71 282.733 83.722 Z " fill="rgb(77,95,109)"/></g><clipPath id="_clipPath_OVMmUDhYhXfRZ4orAekKvgJ974nbI2GX"><path d=" M 0 0 L 0 490.319 L 490.319 490.319 L 490.319 0 L 0 0 Z " fill="rgb(255,255,255)"/></clipPath><g clip-path="url(#_clipPath_OVMmUDhYhXfRZ4orAekKvgJ974nbI2GX)"><path d=" M 316.325 131.082 C 316.293 130.983 316.259 130.874 316.227 130.776 C 308.9 106.347 287.703 97.839 274.583 94.886 C 277.227 91.084 279.935 87.346 282.733 83.722 C 279.121 83.06 275.335 82.685 271.365 82.613 C 295.873 83.058 313.592 94.736 324.407 117.864 L 317.094 129.825 L 316.325 131.082 Z  M 271.347 82.613 C 271.324 82.612 271.299 82.612 271.275 82.611 C 271.299 82.612 271.324 82.612 271.347 82.613 Z  M 271.233 82.611 C 271.216 82.61 271.196 82.61 271.179 82.61 C 271.196 82.61 271.216 82.61 271.233 82.611 Z  M 271.136 82.609 C 271.122 82.609 271.107 82.609 271.091 82.608 C 271.107 82.609 271.122 82.609 271.136 82.609 Z  M 271.053 82.608 C 271.026 82.607 270.997 82.607 270.97 82.607 C 270.997 82.607 271.026 82.607 271.053 82.608 Z " fill="rgb(54,62,70)"/></g><clipPath id="_clipPath_A46t83cAkYu6LQPy0pCurqDzOzr5BdGQ"><path d=" M 0 0 L 0 490.319 L 490.319 490.319 L 490.319 0 L 0 0 Z " fill="rgb(255,255,255)"/></clipPath><g clip-path="url(#_clipPath_A46t83cAkYu6LQPy0pCurqDzOzr5BdGQ)"><path d=" M 274.583 94.886 C 268.176 93.443 263.695 93.326 263.695 93.326 L 263.618 92.781 C 267.643 87.197 270.97 82.607 270.97 82.607 L 270.97 82.607 C 270.997 82.607 271.026 82.607 271.053 82.608 C 271.067 82.608 271.078 82.608 271.091 82.608 C 271.107 82.609 271.122 82.609 271.136 82.609 C 271.15 82.609 271.165 82.609 271.179 82.61 C 271.196 82.61 271.216 82.61 271.233 82.611 C 271.249 82.611 271.26 82.611 271.275 82.611 C 271.299 82.612 271.324 82.612 271.347 82.613 C 271.352 82.613 271.361 82.613 271.365 82.613 C 275.335 82.685 279.121 83.06 282.733 83.722 C 279.935 87.346 277.227 91.084 274.583 94.886 Z " fill="rgb(64,79,91)"/></g><clipPath id="_clipPath_nI0aJiysssRxJqvpv3oZn0Ldo8Kpw7Nt"><path d=" M 0 0 L 0 490.319 L 490.319 490.319 L 490.319 0 L 0 0 Z " fill="rgb(255,255,255)"/></clipPath><g clip-path="url(#_clipPath_nI0aJiysssRxJqvpv3oZn0Ldo8Kpw7Nt)"><path d=" M 243.447 329.616 L 226.516 329.616 C 220.274 329.616 215.214 324.556 215.214 318.315 L 215.214 302.642 C 215.214 296.402 220.274 291.34 226.516 291.34 L 243.447 291.34 C 249.689 291.34 254.748 296.402 254.748 302.642 L 254.748 318.315 C 254.748 324.556 249.689 329.616 243.447 329.616 Z " fill="rgb(124,142,158)"/></g><clipPath id="_clipPath_reOXARALhjgzYbuMfD7lx4kgZlgqxTqV"><path d=" M 0 0 L 0 490.319 L 490.319 490.319 L 490.319 0 L 0 0 Z " fill="rgb(255,255,255)"/></clipPath><g clip-path="url(#_clipPath_reOXARALhjgzYbuMfD7lx4kgZlgqxTqV)"><path d=" M 253.989 322.903 L 215.974 322.903 C 211.155 322.903 207.248 318.998 207.248 314.179 L 207.248 277.93 C 207.248 273.111 211.155 269.206 215.974 269.206 L 253.989 269.206 C 258.807 269.206 262.713 273.111 262.713 277.93 L 262.713 314.179 C 262.713 318.998 258.807 322.903 253.989 322.903 Z " fill="rgb(167,185,199)"/></g><clipPath id="_clipPath_tXxWhpectEgul9PZRORnaySo2o9Ql0Lh"><path d=" M 0 0 L 0 490.319 L 490.319 490.319 L 490.319 0 L 0 0 Z " fill="rgb(255,255,255)"/></clipPath><g clip-path="url(#_clipPath_tXxWhpectEgul9PZRORnaySo2o9Ql0Lh)"><path d=" M 313.879 182.77 C 313.879 137.957 276.517 101.87 231.245 103.958 C 191.04 105.813 158.321 138.296 156.196 178.489 C 154.419 212.096 173.695 241.401 202.008 254.447 L 202.008 275.33 C 202.008 280.531 206.226 284.751 211.429 284.751 L 258.534 284.751 C 263.736 284.751 267.952 280.531 267.952 275.33 L 267.952 254.447 C 295.056 241.957 313.879 214.57 313.879 182.77 Z " fill="rgb(248,197,47)"/></g><clipPath id="_clipPath_ldInarDRdGQ2Bz14OgA4u2XqeT7IVget"><path d=" M 0 0 L 0 490.319 L 490.319 490.319 L 490.319 0 L 0 0 Z " fill="rgb(255,255,255)"/></clipPath><g clip-path="url(#_clipPath_ldInarDRdGQ2Bz14OgA4u2XqeT7IVget)"><path d=" M 255.156 280.268 C 248.068 280.268 237.707 280.268 237.707 280.268 C 237.707 280.268 257.609 275.361 263.063 257.64 L 263.063 275.361 C 263.063 275.361 262.245 280.268 255.156 280.268 Z " fill="rgb(251,215,53)"/></g><clipPath id="_clipPath_fwYjsP5ZO1ys5KPma9vmTu4v5pZMFA3v"><path d=" M 0 0 L 0 490.319 L 490.319 490.319 L 490.319 0 L 0 0 Z " fill="rgb(255,255,255)"/></clipPath><g clip-path="url(#_clipPath_fwYjsP5ZO1ys5KPma9vmTu4v5pZMFA3v)"><path d=" M 172.425 152.271 C 184.346 126.644 209.732 111.581 236.248 111.581 C 246.178 111.581 256.273 113.696 265.869 118.161 C 264.784 118.137 263.704 118.126 262.623 118.126 C 230.651 118.126 200.412 128.495 172.425 152.271 Z " fill="rgb(251,215,53)"/></g><clipPath id="_clipPath_4Z1jCNQLez0Rfgkqjo2pI9xHTfw0NmSH"><path d=" M 0 0 L 0 490.319 L 490.319 490.319 L 490.319 0 L 0 0 Z " fill="rgb(255,255,255)"/></clipPath><g clip-path="url(#_clipPath_4Z1jCNQLez0Rfgkqjo2pI9xHTfw0NmSH)"><path d=" M 258.701 289.079 L 209.535 289.079 L 209.535 288.179 L 258.701 288.179 L 258.701 289.079 Z " fill="rgb(124,142,158)"/></g><clipPath id="_clipPath_YAlHBWTroSxphYfv3z3yLiRVLzu7TThv"><path d=" M 0 0 L 0 490.319 L 490.319 490.319 L 490.319 0 L 0 0 Z " fill="rgb(255,255,255)"/></clipPath><g clip-path="url(#_clipPath_YAlHBWTroSxphYfv3z3yLiRVLzu7TThv)"><path d=" M 258.701 292.352 L 209.535 292.352 L 209.535 291.451 L 258.701 291.451 L 258.701 292.352 Z " fill="rgb(124,142,158)"/></g><clipPath id="_clipPath_oAPLGSCwvqlHfvye9O2PWc2L8rtdd4IY"><path d=" M 0 0 L 0 490.319 L 490.319 490.319 L 490.319 0 L 0 0 Z " fill="rgb(255,255,255)"/></clipPath><g clip-path="url(#_clipPath_oAPLGSCwvqlHfvye9O2PWc2L8rtdd4IY)"><path d=" M 258.701 295.623 L 209.535 295.623 L 209.535 294.722 L 258.701 294.722 L 258.701 295.623 Z " fill="rgb(124,142,158)"/></g><clipPath id="_clipPath_f7r6pX9f7Re3EjNbe1XyQcOHXfV0Tnuo"><path d=" M 0 0 L 0 490.319 L 490.319 490.319 L 490.319 0 L 0 0 Z " fill="rgb(255,255,255)"/></clipPath><g clip-path="url(#_clipPath_f7r6pX9f7Re3EjNbe1XyQcOHXfV0Tnuo)"><path d=" M 258.701 298.895 L 209.535 298.895 L 209.535 297.994 L 258.701 297.994 L 258.701 298.895 Z " fill="rgb(124,142,158)"/></g><clipPath id="_clipPath_J2kT1xz2EBzRf4DqXxl4wYuZLhO51kxL"><path d=" M 0 0 L 0 490.319 L 490.319 490.319 L 490.319 0 L 0 0 Z " fill="rgb(255,255,255)"/></clipPath><g clip-path="url(#_clipPath_J2kT1xz2EBzRf4DqXxl4wYuZLhO51kxL)"><path d=" M 258.701 302.167 L 209.535 302.167 L 209.535 301.266 L 258.701 301.266 L 258.701 302.167 Z " fill="rgb(124,142,158)"/></g><clipPath id="_clipPath_Sd6ggc5h5ZN2M8nWsXZkS0HpHZRc7XuI"><path d=" M 0 0 L 0 490.319 L 490.319 490.319 L 490.319 0 L 0 0 Z " fill="rgb(255,255,255)"/></clipPath><g clip-path="url(#_clipPath_Sd6ggc5h5ZN2M8nWsXZkS0HpHZRc7XuI)"><path d=" M 258.701 305.439 L 209.535 305.439 L 209.535 304.538 L 258.701 304.538 L 258.701 305.439 Z " fill="rgb(124,142,158)"/></g><clipPath id="_clipPath_s7pNZvdkKL5PjlSVAqXGWvJlviNEz2MD"><path d=" M 0 0 L 0 490.319 L 490.319 490.319 L 490.319 0 L 0 0 Z " fill="rgb(255,255,255)"/></clipPath><g clip-path="url(#_clipPath_s7pNZvdkKL5PjlSVAqXGWvJlviNEz2MD)"><path d=" M 258.701 308.711 L 209.535 308.711 L 209.535 307.809 L 258.701 307.809 L 258.701 308.711 Z " fill="rgb(124,142,158)"/></g><clipPath id="_clipPath_SH0cj1YUjhUcTdo8FRIIApAZpmX8ijoF"><path d=" M 0 0 L 0 490.319 L 490.319 490.319 L 490.319 0 L 0 0 Z " fill="rgb(255,255,255)"/></clipPath><g clip-path="url(#_clipPath_SH0cj1YUjhUcTdo8FRIIApAZpmX8ijoF)"><path d=" M 258.701 311.982 L 209.535 311.982 L 209.535 311.081 L 258.701 311.081 L 258.701 311.982 Z " fill="rgb(124,142,158)"/></g><clipPath id="_clipPath_OvAQ5Cc3MdZL1mUefhmKYWIYsXyRgrOC"><path d=" M 0 0 L 0 490.319 L 490.319 490.319 L 490.319 0 L 0 0 Z " fill="rgb(255,255,255)"/></clipPath><g clip-path="url(#_clipPath_OvAQ5Cc3MdZL1mUefhmKYWIYsXyRgrOC)"><path d=" M 258.701 315.254 L 209.535 315.254 L 209.535 314.353 L 258.701 314.353 L 258.701 315.254 Z " fill="rgb(124,142,158)"/></g><clipPath id="_clipPath_4FdizargdxcsnHpk6CX8cKI0qYNfFPny"><path d=" M 0 0 L 0 490.319 L 490.319 490.319 L 490.319 0 L 0 0 Z " fill="rgb(255,255,255)"/></clipPath><g clip-path="url(#_clipPath_4FdizargdxcsnHpk6CX8cKI0qYNfFPny)"><path d=" M 258.701 318.524 L 209.535 318.524 L 209.535 317.624 L 258.701 317.624 L 258.701 318.524 Z " fill="rgb(124,142,158)"/></g><clipPath id="_clipPath_e1JG4TSXNMVSznb9gXzwi2O8bJGUZIhA"><path d=" M 0 0 L 0 490.319 L 490.319 490.319 L 490.319 0 L 0 0 Z " fill="rgb(255,255,255)"/></clipPath><g clip-path="url(#_clipPath_e1JG4TSXNMVSznb9gXzwi2O8bJGUZIhA)"><path d=" M 251.339 318.71 L 241.435 318.71 C 241.333 318.71 241.251 318.63 241.251 318.528 L 241.251 318.524 L 253.337 318.524 C 252.74 318.643 252.076 318.71 251.339 318.71 Z  M 255.691 317.624 L 241.251 317.624 L 241.251 315.254 L 257.896 315.254 C 257.451 316.09 256.76 316.964 255.691 317.624 Z  M 258.297 314.353 L 241.251 314.353 L 241.251 311.982 L 258.701 311.982 L 258.701 311.081 L 241.251 311.081 L 241.251 308.711 L 258.701 308.711 L 258.701 307.809 L 241.251 307.809 L 241.251 305.439 L 258.701 305.439 L 258.701 304.538 L 241.251 304.538 L 241.251 302.167 L 258.701 302.167 L 258.701 301.266 L 241.251 301.266 L 241.251 298.895 L 258.701 298.895 L 258.701 297.994 L 241.251 297.994 L 241.251 295.623 L 258.701 295.623 L 258.701 294.722 L 241.251 294.722 L 241.251 292.352 L 258.701 292.352 L 258.701 291.451 L 241.251 291.451 L 241.251 289.167 C 241.251 289.136 241.259 289.106 241.274 289.079 L 258.701 289.079 L 258.701 288.905 L 258.701 288.905 L 258.701 312.546 L 258.701 312.554 C 258.699 312.585 258.659 313.362 258.297 314.353 Z " fill="rgb(125,144,161)"/></g><clipPath id="_clipPath_9mckqGn8HjIRn7quuctSoSlSKRToUQmh"><path d=" M 0 0 L 0 490.319 L 490.319 490.319 L 490.319 0 L 0 0 Z " fill="rgb(255,255,255)"/></clipPath><g clip-path="url(#_clipPath_9mckqGn8HjIRn7quuctSoSlSKRToUQmh)"><path d=" M 258.701 289.079 L 241.274 289.079 C 241.305 289.024 241.364 288.986 241.431 288.985 L 258.516 288.723 C 258.517 288.723 258.517 288.723 258.518 288.723 C 258.619 288.723 258.701 288.804 258.701 288.905 L 258.701 289.079 Z " fill="rgb(96,113,130)"/></g><clipPath id="_clipPath_b4AL7LB7bdA6LyJjmBts9d3PXSuh250K"><path d=" M 0 0 L 0 490.319 L 490.319 490.319 L 490.319 0 L 0 0 Z " fill="rgb(255,255,255)"/></clipPath><g clip-path="url(#_clipPath_b4AL7LB7bdA6LyJjmBts9d3PXSuh250K)"><path d=" M 258.701 292.352 L 241.251 292.352 L 241.251 291.451 L 258.701 291.451 L 258.701 292.352 Z " fill="rgb(96,113,130)"/></g><clipPath id="_clipPath_Xzwifx9tm91qvAl6GlZPfBO5hJKxj1xL"><path d=" M 0 0 L 0 490.319 L 490.319 490.319 L 490.319 0 L 0 0 Z " fill="rgb(255,255,255)"/></clipPath><g clip-path="url(#_clipPath_Xzwifx9tm91qvAl6GlZPfBO5hJKxj1xL)"><path d=" M 258.701 295.623 L 241.251 295.623 L 241.251 294.722 L 258.701 294.722 L 258.701 295.623 Z " fill="rgb(96,113,130)"/></g><clipPath id="_clipPath_FIcCRKHTFSIcaviQEUsAo3Ez5fTD1pxe"><path d=" M 0 0 L 0 490.319 L 490.319 490.319 L 490.319 0 L 0 0 Z " fill="rgb(255,255,255)"/></clipPath><g clip-path="url(#_clipPath_FIcCRKHTFSIcaviQEUsAo3Ez5fTD1pxe)"><path d=" M 258.701 298.895 L 241.251 298.895 L 241.251 297.994 L 258.701 297.994 L 258.701 298.895 Z " fill="rgb(96,113,130)"/></g><clipPath id="_clipPath_OJ7mwEntDuMzR6kYPexU0svQdFT8PTE7"><path d=" M 0 0 L 0 490.319 L 490.319 490.319 L 490.319 0 L 0 0 Z " fill="rgb(255,255,255)"/></clipPath><g clip-path="url(#_clipPath_OJ7mwEntDuMzR6kYPexU0svQdFT8PTE7)"><path d=" M 258.701 302.167 L 241.251 302.167 L 241.251 301.266 L 258.701 301.266 L 258.701 302.167 Z " fill="rgb(96,113,130)"/></g><clipPath id="_clipPath_vdmlUK8hNuGHPyHBH4KZq8TlwSM7hJRQ"><path d=" M 0 0 L 0 490.319 L 490.319 490.319 L 490.319 0 L 0 0 Z " fill="rgb(255,255,255)"/></clipPath><g clip-path="url(#_clipPath_vdmlUK8hNuGHPyHBH4KZq8TlwSM7hJRQ)"><path d=" M 258.701 305.439 L 241.251 305.439 L 241.251 304.538 L 258.701 304.538 L 258.701 305.439 Z " fill="rgb(96,113,130)"/></g><clipPath id="_clipPath_RuyaBtqwWFSVJTcVK86S8LIE4FmE0JvH"><path d=" M 0 0 L 0 490.319 L 490.319 490.319 L 490.319 0 L 0 0 Z " fill="rgb(255,255,255)"/></clipPath><g clip-path="url(#_clipPath_RuyaBtqwWFSVJTcVK86S8LIE4FmE0JvH)"><path d=" M 258.701 308.711 L 241.251 308.711 L 241.251 307.809 L 258.701 307.809 L 258.701 308.711 Z " fill="rgb(96,113,130)"/></g><clipPath id="_clipPath_hqrzDNfgxiswJcMIxOocaNJbkYDwcTew"><path d=" M 0 0 L 0 490.319 L 490.319 490.319 L 490.319 0 L 0 0 Z " fill="rgb(255,255,255)"/></clipPath><g clip-path="url(#_clipPath_hqrzDNfgxiswJcMIxOocaNJbkYDwcTew)"><path d=" M 258.701 311.982 L 241.251 311.982 L 241.251 311.081 L 258.701 311.081 L 258.701 311.982 Z " fill="rgb(96,113,130)"/></g><clipPath id="_clipPath_wME4YW9kp9MyRdO3fvU5UQWfLHJ0y9RS"><path d=" M 0 0 L 0 490.319 L 490.319 490.319 L 490.319 0 L 0 0 Z " fill="rgb(255,255,255)"/></clipPath><g clip-path="url(#_clipPath_wME4YW9kp9MyRdO3fvU5UQWfLHJ0y9RS)"><path d=" M 257.896 315.254 L 241.251 315.254 L 241.251 314.353 L 258.297 314.353 C 258.192 314.639 258.061 314.944 257.896 315.254 Z " fill="rgb(96,113,130)"/></g><clipPath id="_clipPath_lfXAOtLWjYMbGqOAfO1wzhqHxE4shGUF"><path d=" M 0 0 L 0 490.319 L 490.319 490.319 L 490.319 0 L 0 0 Z " fill="rgb(255,255,255)"/></clipPath><g clip-path="url(#_clipPath_lfXAOtLWjYMbGqOAfO1wzhqHxE4shGUF)"><path d=" M 253.337 318.524 L 241.251 318.524 L 241.251 317.624 L 255.691 317.624 C 255.052 318.018 254.276 318.336 253.337 318.524 Z " fill="rgb(96,113,130)"/></g><clipPath id="_clipPath_DFrpGOk7mR1RdKUo7QS1E5MEdjxdzGlW"><path d=" M 0 0 L 0 490.319 L 490.319 490.319 L 490.319 0 L 0 0 Z " fill="rgb(255,255,255)"/></clipPath><g clip-path="url(#_clipPath_DFrpGOk7mR1RdKUo7QS1E5MEdjxdzGlW)"><path d=" M 306.686 352.576 L 209.643 352.576 C 208.59 352.576 207.737 351.722 207.737 350.671 L 207.737 330.611 C 207.737 329.56 208.59 328.707 209.643 328.707 L 306.686 328.707 C 307.738 328.707 308.592 329.56 308.592 330.611 L 308.592 350.671 C 308.592 351.722 307.738 352.576 306.686 352.576 Z " fill="rgb(227,217,211)"/></g><clipPath id="_clipPath_IleUu6AtjoOVCDiHO0zn5sGd87XHC2jp"><path d=" M 0 0 L 0 490.319 L 490.319 490.319 L 490.319 0 L 0 0 Z " fill="rgb(255,255,255)"/></clipPath><g clip-path="url(#_clipPath_IleUu6AtjoOVCDiHO0zn5sGd87XHC2jp)"><path d=" M 308.867 332.518 L 211.824 332.518 C 210.772 332.518 209.918 331.664 209.918 330.611 C 209.918 329.56 210.772 328.707 211.824 328.707 L 308.867 328.707 C 309.92 328.707 310.772 329.56 310.772 330.611 C 310.772 331.664 309.92 332.518 308.867 332.518 Z " fill="rgb(232,115,58)"/></g><clipPath id="_clipPath_Bl58grLChV2nii809WoSFD0f9blJqFmW"><path d=" M 0 0 L 0 490.319 L 490.319 490.319 L 490.319 0 L 0 0 Z " fill="rgb(255,255,255)"/></clipPath><g clip-path="url(#_clipPath_Bl58grLChV2nii809WoSFD0f9blJqFmW)"><path d=" M 308.867 348.875 L 211.824 348.875 C 210.772 348.875 209.918 348.022 209.918 346.969 C 209.918 345.919 210.772 345.066 211.824 345.066 L 308.867 345.066 C 309.92 345.066 310.772 345.919 310.772 346.969 C 310.772 348.022 309.92 348.875 308.867 348.875 Z " fill="rgb(232,115,58)"/></g><clipPath id="_clipPath_sekXxEj3nqEV2Qp2o0SE63wIOlpF3h2k"><path d=" M 0 0 L 0 490.319 L 490.319 490.319 L 490.319 0 L 0 0 Z " fill="rgb(255,255,255)"/></clipPath><g clip-path="url(#_clipPath_sekXxEj3nqEV2Qp2o0SE63wIOlpF3h2k)"><path d=" M 325.652 411.407 L 190.144 411.407 C 189.091 411.407 188.239 410.554 188.239 409.501 L 188.239 389.443 C 188.239 388.392 189.091 387.538 190.144 387.538 L 325.652 387.538 C 326.704 387.538 327.557 388.392 327.557 389.443 L 327.557 409.501 C 327.557 410.554 326.704 411.407 325.652 411.407 Z " fill="rgb(212,212,208)"/></g><clipPath id="_clipPath_4UOTnVwD0y2h1vQ4FHi6iRITgxKpB5tO"><path d=" M 0 0 L 0 490.319 L 490.319 490.319 L 490.319 0 L 0 0 Z " fill="rgb(255,255,255)"/></clipPath><g clip-path="url(#_clipPath_4UOTnVwD0y2h1vQ4FHi6iRITgxKpB5tO)"><path d=" M 328.893 390.142 L 188.782 390.142 C 188.482 390.142 188.239 389.898 188.239 389.599 L 188.239 388.08 C 188.239 387.781 188.482 387.538 188.782 387.538 L 328.893 387.538 C 329.191 387.538 329.433 387.781 329.433 388.08 L 329.433 389.599 C 329.433 389.898 329.191 390.142 328.893 390.142 Z " fill="rgb(79,122,159)"/></g><clipPath id="_clipPath_MBVR2r3ECoqzCZPrjQvR8faeB0AnuIzQ"><path d=" M 0 0 L 0 490.319 L 490.319 490.319 L 490.319 0 L 0 0 Z " fill="rgb(255,255,255)"/></clipPath><g clip-path="url(#_clipPath_MBVR2r3ECoqzCZPrjQvR8faeB0AnuIzQ)"><path d=" M 328.893 411.225 L 188.782 411.225 C 188.482 411.225 188.239 410.982 188.239 410.683 L 188.239 409.165 C 188.239 408.865 188.482 408.622 188.782 408.622 L 328.893 408.622 C 329.191 408.622 329.433 408.865 329.433 409.165 L 329.433 410.683 C 329.433 410.982 329.191 411.225 328.893 411.225 Z " fill="rgb(79,122,159)"/></g><clipPath id="_clipPath_xPs26bLZCv0w288FIGskFSb1uBDYvFjd"><path d=" M 0 0 L 0 490.319 L 490.319 490.319 L 490.319 0 L 0 0 Z " fill="rgb(255,255,255)"/></clipPath><g clip-path="url(#_clipPath_xPs26bLZCv0w288FIGskFSb1uBDYvFjd)"><path d=" M 316.436 366.36 L 199.558 366.36 C 198.505 366.36 197.652 365.507 197.652 364.454 L 197.652 354.481 C 197.652 353.43 198.505 352.576 199.558 352.576 L 316.436 352.576 C 317.488 352.576 318.34 353.43 318.34 354.481 L 318.34 364.454 C 318.34 365.507 317.488 366.36 316.436 366.36 Z " fill="rgb(227,217,211)"/></g><clipPath id="_clipPath_8689SIsNCYHxL0DclCBlp8DX605u2jyE"><path d=" M 0 0 L 0 490.319 L 490.319 490.319 L 490.319 0 L 0 0 Z " fill="rgb(255,255,255)"/></clipPath><g clip-path="url(#_clipPath_8689SIsNCYHxL0DclCBlp8DX605u2jyE)"><path d=" M 318.766 354.698 L 199.409 354.698 C 199.041 354.698 198.743 354.399 198.743 354.033 L 198.743 353.242 C 198.743 352.874 199.041 352.576 199.409 352.576 L 318.766 352.576 C 319.134 352.576 319.431 352.874 319.431 353.242 L 319.431 354.033 C 319.431 354.399 319.134 354.698 318.766 354.698 Z " fill="rgb(230,89,57)"/></g><clipPath id="_clipPath_K2VK9Sq4B1qAa55iPuc2JHsxmzLKLEl6"><path d=" M 0 0 L 0 490.319 L 490.319 490.319 L 490.319 0 L 0 0 Z " fill="rgb(255,255,255)"/></clipPath><g clip-path="url(#_clipPath_K2VK9Sq4B1qAa55iPuc2JHsxmzLKLEl6)"><path d=" M 318.766 366.332 L 199.409 366.332 C 199.041 366.332 198.743 366.034 198.743 365.666 L 198.743 364.876 C 198.743 364.506 199.041 364.208 199.409 364.208 L 318.766 364.208 C 319.134 364.208 319.431 364.506 319.431 364.876 L 319.431 365.666 C 319.431 366.034 319.134 366.332 318.766 366.332 Z " fill="rgb(230,89,57)"/></g><clipPath id="_clipPath_f95zSfXoZgbJH4OKu6Adz5Ev3v0hHqWN"><path d=" M 0 0 L 0 490.319 L 490.319 490.319 L 490.319 0 L 0 0 Z " fill="rgb(255,255,255)"/></clipPath><g clip-path="url(#_clipPath_f95zSfXoZgbJH4OKu6Adz5Ev3v0hHqWN)"><path d=" M 316.289 348.766 L 200.711 348.766 C 200.445 348.766 200.229 348.982 200.229 349.248 L 200.229 352.094 C 200.229 352.359 200.445 352.576 200.711 352.576 L 316.289 352.576 C 316.558 352.576 316.771 352.359 316.771 352.094 L 316.771 349.248 C 316.771 348.982 316.558 348.766 316.289 348.766 Z " fill="rgb(212,212,208)"/></g><clipPath id="_clipPath_xpIWjG9UcuZ06Y5YJTqOVCcB2TmHrgnP"><path d=" M 0 0 L 0 490.319 L 490.319 490.319 L 490.319 0 L 0 0 Z " fill="rgb(255,255,255)"/></clipPath><g clip-path="url(#_clipPath_xpIWjG9UcuZ06Y5YJTqOVCcB2TmHrgnP)"><path d=" M 318.564 387.538 L 202.583 387.538 C 201.531 387.538 200.678 386.686 200.678 385.633 L 200.678 370.599 C 200.678 369.547 201.531 368.694 202.583 368.694 L 318.564 368.694 C 319.616 368.694 320.469 369.547 320.469 370.599 L 320.469 385.633 C 320.469 386.686 319.616 387.538 318.564 387.538 Z " fill="rgb(227,217,211)"/></g><clipPath id="_clipPath_c4Tto9nKMVr1H8WF9YY4Q9qOo0vRRiJJ"><path d=" M 0 0 L 0 490.319 L 490.319 490.319 L 490.319 0 L 0 0 Z " fill="rgb(255,255,255)"/></clipPath><g clip-path="url(#_clipPath_c4Tto9nKMVr1H8WF9YY4Q9qOo0vRRiJJ)"><path d=" M 320.134 387.538 L 202.583 387.538 C 201.531 387.538 200.678 386.686 200.678 385.633 C 200.678 384.581 201.531 383.728 202.583 383.728 L 320.134 383.728 C 321.185 383.728 322.038 384.581 322.038 385.633 C 322.038 386.686 321.185 387.538 320.134 387.538 Z " fill="rgb(78,155,158)"/></g><clipPath id="_clipPath_G03UVVy8l447P8fhG3rs0Eqme4gDfN6D"><path d=" M 0 0 L 0 490.319 L 490.319 490.319 L 490.319 0 L 0 0 Z " fill="rgb(255,255,255)"/></clipPath><g clip-path="url(#_clipPath_G03UVVy8l447P8fhG3rs0Eqme4gDfN6D)"><path d=" M 320.134 370.17 L 202.583 370.17 C 201.531 370.17 200.678 369.316 200.678 368.265 C 200.678 367.211 201.531 366.36 202.583 366.36 L 320.134 366.36 C 321.185 366.36 322.038 367.211 322.038 368.265 C 322.038 369.316 321.185 370.17 320.134 370.17 Z " fill="rgb(78,155,158)"/></g><clipPath id="_clipPath_fY07Oba3wLSy9N6o8BklstmxwcoVOFOB"><path d=" M 0 0 L 0 490.319 L 490.319 490.319 L 490.319 0 L 0 0 Z " fill="rgb(255,255,255)"/></clipPath><g clip-path="url(#_clipPath_fY07Oba3wLSy9N6o8BklstmxwcoVOFOB)"><path d=" M 258.975 352.576 L 161.932 352.576 C 160.879 352.576 160.025 351.722 160.025 350.671 L 160.025 330.611 C 160.025 329.56 160.879 328.707 161.932 328.707 L 258.975 328.707 C 260.027 328.707 260.879 329.56 260.879 330.611 L 260.879 350.671 C 260.879 351.722 260.027 352.576 258.975 352.576 Z " fill="rgb(232,115,58)"/></g><clipPath id="_clipPath_4NFMhTzToyR8M0ocfVJnPSGJeaQHZvY2"><path d=" M 0 0 L 0 490.319 L 490.319 490.319 L 490.319 0 L 0 0 Z " fill="rgb(255,255,255)"/></clipPath><g clip-path="url(#_clipPath_4NFMhTzToyR8M0ocfVJnPSGJeaQHZvY2)"><path d=" M 279.818 411.407 L 142.433 411.407 C 141.38 411.407 140.528 410.554 140.528 409.501 L 140.528 389.443 C 140.528 388.392 141.38 387.538 142.433 387.538 L 279.818 387.538 C 280.87 387.538 281.722 388.392 281.722 389.443 L 281.722 409.501 C 281.722 410.554 280.87 411.407 279.818 411.407 Z " fill="rgb(79,122,159)"/></g><clipPath id="_clipPath_owZ8qx8kJ2fzqN6K7P6cEKSfDm1NjTdG"><path d=" M 0 0 L 0 490.319 L 490.319 490.319 L 490.319 0 L 0 0 Z " fill="rgb(255,255,255)"/></clipPath><g clip-path="url(#_clipPath_owZ8qx8kJ2fzqN6K7P6cEKSfDm1NjTdG)"><path d=" M 268.724 366.36 L 151.845 366.36 C 150.794 366.36 149.939 365.507 149.939 364.454 L 149.939 354.481 C 149.939 353.43 150.794 352.576 151.845 352.576 L 268.724 352.576 C 269.777 352.576 270.629 353.43 270.629 354.481 L 270.629 364.454 C 270.629 365.507 269.777 366.36 268.724 366.36 Z " fill="rgb(230,89,57)"/></g><clipPath id="_clipPath_n4puHOAFBzvSxZIABcJocmrnhhPSX0un"><path d=" M 0 0 L 0 490.319 L 490.319 490.319 L 490.319 0 L 0 0 Z " fill="rgb(255,255,255)"/></clipPath><g clip-path="url(#_clipPath_n4puHOAFBzvSxZIABcJocmrnhhPSX0un)"><path d=" M 268.079 348.766 L 153.499 348.766 C 152.958 348.766 152.518 349.206 152.518 349.746 L 152.518 351.594 C 152.518 352.137 152.958 352.576 153.499 352.576 L 268.079 352.576 C 268.62 352.576 269.06 352.137 269.06 351.594 L 269.06 349.746 C 269.06 349.206 268.62 348.766 268.079 348.766 Z " fill="rgb(78,155,158)"/></g><clipPath id="_clipPath_88svgHsWqZCUsQKgTDEVxPueraf4J3DH"><path d=" M 0 0 L 0 490.319 L 490.319 490.319 L 490.319 0 L 0 0 Z " fill="rgb(255,255,255)"/></clipPath><g clip-path="url(#_clipPath_88svgHsWqZCUsQKgTDEVxPueraf4J3DH)"><path d=" M 272.422 387.538 L 154.871 387.538 C 153.819 387.538 152.966 386.686 152.966 385.633 L 152.966 368.265 C 152.966 367.211 153.819 366.36 154.871 366.36 L 272.422 366.36 C 273.474 366.36 274.327 367.211 274.327 368.265 L 274.327 385.633 C 274.327 386.686 273.474 387.538 272.422 387.538 Z " fill="rgb(78,155,158)"/></g><clipPath id="_clipPath_BNevg9yQ5m4BtTeNHypB1mH4ddspTkT2"><path d=" M 0 0 L 0 490.319 L 490.319 490.319 L 490.319 0 L 0 0 Z " fill="rgb(255,255,255)"/></clipPath><g clip-path="url(#_clipPath_BNevg9yQ5m4BtTeNHypB1mH4ddspTkT2)"><path d=" M 163.156 366.148 L 157.568 366.148 L 157.568 352.653 L 163.156 352.653 L 163.156 366.148 Z " fill="rgb(232,115,58)"/></g><clipPath id="_clipPath_u9WZZ6yMq4HLNdmEuUBp8BWvysXQN0Q1"><path d=" M 0 0 L 0 490.319 L 490.319 490.319 L 490.319 0 L 0 0 Z " fill="rgb(255,255,255)"/></clipPath><g clip-path="url(#_clipPath_u9WZZ6yMq4HLNdmEuUBp8BWvysXQN0Q1)"><path d=" M 174.335 387.414 L 162.338 387.414 L 162.338 366.148 L 174.335 366.148 L 174.335 387.414 Z " fill="rgb(254,254,254)"/></g><clipPath id="_clipPath_p6Cp61XSbM948s1Jtng8vk6HAchQ9esr"><path d=" M 0 0 L 0 490.319 L 490.319 490.319 L 490.319 0 L 0 0 Z " fill="rgb(255,255,255)"/></clipPath><g clip-path="url(#_clipPath_p6Cp61XSbM948s1Jtng8vk6HAchQ9esr)"><path d=" M 181.51 384.144 L 180.609 384.144 L 180.609 369.966 L 181.51 369.966 L 181.51 384.144 Z " fill="rgb(254,254,254)"/></g><clipPath id="_clipPath_2siFuxOqbNKiwwN31nX7XnSiiOOC8ugn"><path d=" M 0 0 L 0 490.319 L 490.319 490.319 L 490.319 0 L 0 0 Z " fill="rgb(255,255,255)"/></clipPath><g clip-path="url(#_clipPath_2siFuxOqbNKiwwN31nX7XnSiiOOC8ugn)"><path d=" M 254.672 402.399 L 152.342 402.399 L 152.342 399.695 L 254.672 399.695 L 254.672 402.399 Z " fill="rgb(254,254,254)"/></g><clipPath id="_clipPath_B4OSOdaNhHaJTWWM9K9ReO2F4e4iM0qh"><path d=" M 0 0 L 0 490.319 L 490.319 490.319 L 490.319 0 L 0 0 Z " fill="rgb(255,255,255)"/></clipPath><g clip-path="url(#_clipPath_B4OSOdaNhHaJTWWM9K9ReO2F4e4iM0qh)"><path d=" M 168.787 361.605 L 167.886 361.605 L 167.886 356.153 L 168.787 356.153 L 168.787 361.605 Z " fill="rgb(254,254,254)"/></g><clipPath id="_clipPath_N42qP0mIHi7sA7MDxu9UDcVygwkEG4mk"><path d=" M 0 0 L 0 490.319 L 490.319 490.319 L 490.319 0 L 0 0 Z " fill="rgb(255,255,255)"/></clipPath><g clip-path="url(#_clipPath_N42qP0mIHi7sA7MDxu9UDcVygwkEG4mk)"><path d=" M 165.507 352.519 L 162.804 352.519 L 162.804 348.701 L 165.507 348.701 L 165.507 352.519 Z " fill="rgb(238,212,64)"/></g><clipPath id="_clipPath_zvzBLCpAYLklu9IK2ii1Ac2zfEu3OKW7"><path d=" M 0 0 L 0 490.319 L 490.319 490.319 L 490.319 0 L 0 0 Z " fill="rgb(255,255,255)"/></clipPath><g clip-path="url(#_clipPath_zvzBLCpAYLklu9IK2ii1Ac2zfEu3OKW7)"><path d=" M 171.869 348.337 L 169.166 348.337 L 169.166 328.889 L 171.869 328.889 L 171.869 348.337 Z " fill="rgb(238,212,64)"/></g><clipPath id="_clipPath_IIkie6hoLH8pcVn00cEop5ecBjwASt6j"><path d=" M 0 0 L 0 490.319 L 490.319 490.319 L 490.319 0 L 0 0 Z " fill="rgb(255,255,255)"/></clipPath><g clip-path="url(#_clipPath_IIkie6hoLH8pcVn00cEop5ecBjwASt6j)"><path d=" M 245.221 340.6 L 180.332 340.6 L 180.332 337.897 L 245.221 337.897 L 245.221 340.6 Z " fill="rgb(254,254,254)"/></g><clipPath id="_clipPath_XhQv8QR0jFJown98w9hPqkCXgWEhOXzx"><path d=" M 0 0 L 0 490.319 L 490.319 490.319 L 490.319 0 L 0 0 Z " fill="rgb(255,255,255)"/></clipPath><g clip-path="url(#_clipPath_XhQv8QR0jFJown98w9hPqkCXgWEhOXzx)"><path d=" M 346.879 365.031 L 340.147 366.668 L 333.782 374.854 L 343.327 377.309 C 343.327 377.309 350.036 378.839 350.149 375.58 C 350.192 374.329 349.423 369.776 346.879 365.031 Z " fill="rgb(54,60,77)"/></g><clipPath id="_clipPath_d1a5wadw67BqRMEGs4tKDRxZYVvM9mHM"><path d=" M 0 0 L 0 490.319 L 490.319 490.319 L 490.319 0 L 0 0 Z " fill="rgb(255,255,255)"/></clipPath><g clip-path="url(#_clipPath_d1a5wadw67BqRMEGs4tKDRxZYVvM9mHM)"><path d=" M 343.54 358.262 C 341.983 359.357 340.463 360.185 338.772 360.9 C 337.107 361.6 335.292 362.112 333.362 362.135 C 332.882 362.136 332.388 362.087 331.908 362.015 C 331.428 361.905 330.918 361.798 330.537 361.651 C 329.717 361.379 328.905 361.072 328.105 360.743 C 326.501 360.073 324.963 359.34 323.476 358.337 C 323.226 358.171 323.16 357.831 323.328 357.583 C 323.483 357.351 323.785 357.278 324.025 357.401 L 324.066 357.421 C 325.482 358.14 327.086 358.686 328.663 359.124 C 329.458 359.342 330.258 359.534 331.067 359.697 C 331.492 359.802 331.821 359.806 332.169 359.85 C 332.524 359.853 332.879 359.849 333.239 359.802 C 334.681 359.602 336.129 359.02 337.482 358.239 C 338.822 357.473 340.172 356.491 341.261 355.499 L 341.295 355.465 C 342.029 354.798 343.165 354.849 343.834 355.583 C 344.504 356.316 344.45 357.45 343.716 358.119 L 343.54 358.262 Z " fill="rgb(74,142,144)"/></g><clipPath id="_clipPath_XKv7bU0k2OaoFp01rLhFu3b2LFXTlfEO"><path d=" M 0 0 L 0 490.319 L 490.319 490.319 L 490.319 0 L 0 0 Z " fill="rgb(255,255,255)"/></clipPath><g clip-path="url(#_clipPath_XKv7bU0k2OaoFp01rLhFu3b2LFXTlfEO)"><path d=" M 348.023 359.701 C 347.824 358.26 347.833 356.772 347.895 355.299 C 347.738 355.318 347.575 355.315 347.405 355.268 C 346.632 355.053 346.192 354.089 346.639 353.382 L 346.64 353.388 L 346.659 353.344 L 345.058 353.458 C 345.058 353.458 340.106 356.818 339.663 359.302 C 339.331 361.164 339.767 364.373 340.005 365.866 C 341.417 365.585 342.934 365.454 344.332 365.485 L 344.353 365.489 C 344.388 365.181 344.474 364.877 344.642 364.575 C 344.935 364.052 345.444 363.414 346.06 363.296 C 346.384 363.233 346.73 363.339 346.966 363.549 C 347.217 363.424 347.486 363.392 347.732 363.451 L 348.38 360.31 C 348.195 360.179 348.062 359.98 348.023 359.701 Z " fill="rgb(78,155,158)"/></g><clipPath id="_clipPath_2Yez5SkXrEcvcbDROSvx3fLPGr7jUOKN"><path d=" M 0 0 L 0 490.319 L 490.319 490.319 L 490.319 0 L 0 0 Z " fill="rgb(255,255,255)"/></clipPath><g clip-path="url(#_clipPath_2Yez5SkXrEcvcbDROSvx3fLPGr7jUOKN)"><path d=" M 344.463 356.12 L 347.315 356.12 L 347.315 345.208 L 344.463 345.208 L 344.463 356.12 Z " fill="rgb(253,207,141)"/></g><clipPath id="_clipPath_3Yt0qlCDzyCWq6xS8rppQzu1gDIGfmja"><path d=" M 0 0 L 0 490.319 L 490.319 490.319 L 490.319 0 L 0 0 Z " fill="rgb(255,255,255)"/></clipPath><g clip-path="url(#_clipPath_3Yt0qlCDzyCWq6xS8rppQzu1gDIGfmja)"><path d=" M 341.486 344.504 C 340.756 347.298 341.374 349.881 344.17 350.611 C 346.965 351.341 349.822 349.669 350.555 346.874 C 351.286 344.077 349.612 341.219 346.816 340.489 C 344.02 339.757 342.217 341.708 341.486 344.504 Z " fill="rgb(253,207,141)"/></g><clipPath id="_clipPath_jYkyPotLXZvauVHStuP5mttORJaBszls"><path d=" M 0 0 L 0 490.319 L 490.319 490.319 L 490.319 0 L 0 0 Z " fill="rgb(255,255,255)"/></clipPath><g clip-path="url(#_clipPath_jYkyPotLXZvauVHStuP5mttORJaBszls)"><path d=" M 344.151 350.175 C 344.151 350.175 348.238 344.324 347.955 344.25 C 346.615 343.899 341.253 342.499 341.253 342.499 C 341.253 342.499 343.871 337.154 350.629 340.915 C 354.85 343.266 355.494 349.664 353.191 351.861 C 351.81 353.181 344.151 350.175 344.151 350.175 Z " fill="rgb(54,60,77)"/></g><clipPath id="_clipPath_EbZ94tXQzHIr2NMEBJK6QB55ggjR51Ro"><path d=" M 0 0 L 0 490.319 L 490.319 490.319 L 490.319 0 L 0 0 Z " fill="rgb(255,255,255)"/></clipPath><g clip-path="url(#_clipPath_EbZ94tXQzHIr2NMEBJK6QB55ggjR51Ro)"><path d=" M 339.746 375.895 L 322.997 371.536 L 324.817 369.875 L 325.813 386.446 C 325.83 386.724 325.619 386.963 325.341 386.979 C 325.084 386.996 324.86 386.815 324.816 386.567 L 321.814 370.24 C 321.67 369.453 322.189 368.699 322.976 368.554 C 323.145 368.524 323.314 368.524 323.475 368.549 L 323.634 368.577 L 340.693 371.49 C 341.921 371.7 342.746 372.865 342.537 374.093 C 342.327 375.319 341.162 376.145 339.934 375.935 L 339.746 375.895 Z " fill="rgb(54,60,77)"/></g><clipPath id="_clipPath_PKxK9pxPINkYaUZXt1IY2MIoP292IA5i"><path d=" M 0 0 L 0 490.319 L 490.319 490.319 L 490.319 0 L 0 0 Z " fill="rgb(255,255,255)"/></clipPath><g clip-path="url(#_clipPath_PKxK9pxPINkYaUZXt1IY2MIoP292IA5i)"><path d=" M 347.368 373.643 L 347.379 376.103 C 347.376 376.941 347.406 377.694 347.422 378.484 L 347.518 383.192 L 347.738 393.052 L 347.58 392.418 L 354.432 409.814 C 354.542 410.094 354.404 410.409 354.126 410.518 C 353.868 410.62 353.582 410.51 353.452 410.274 L 344.49 393.864 C 344.404 393.705 344.356 393.541 344.343 393.372 L 344.332 393.228 L 343.563 383.372 L 343.199 378.22 L 342.885 373.196 C 342.807 371.961 343.747 370.897 344.982 370.819 C 346.219 370.742 347.284 371.681 347.36 372.918 L 347.365 373.039 L 347.368 373.643 Z " fill="rgb(54,60,77)"/></g><clipPath id="_clipPath_6Fau1GBKR2NZxqyx5igH7h4xT3nunuHw"><path d=" M 0 0 L 0 490.319 L 490.319 490.319 L 490.319 0 L 0 0 Z " fill="rgb(255,255,255)"/></clipPath><g clip-path="url(#_clipPath_6Fau1GBKR2NZxqyx5igH7h4xT3nunuHw)"><path d=" M 349.686 354.41 C 351.035 356.545 352.278 358.665 353.426 360.926 C 353.991 362.062 354.535 363.206 354.956 364.529 C 355.057 364.868 355.154 365.21 355.216 365.62 C 355.266 366.02 355.362 366.467 355.126 367.208 C 355.014 367.56 354.681 368.026 354.242 368.254 C 353.908 368.415 353.727 368.427 353.457 368.502 C 352.989 368.59 352.687 368.567 352.308 368.59 C 349.651 368.495 347.287 368.005 344.85 367.552 C 342.435 367.07 340.047 366.537 337.659 365.958 C 337.367 365.887 337.186 365.592 337.258 365.299 C 337.324 365.023 337.598 364.848 337.873 364.887 C 340.277 365.238 342.699 365.547 345.113 365.797 C 347.506 366.022 349.991 366.268 352.223 366.133 C 352.447 366.095 352.767 366.073 352.89 366.022 L 352.975 365.999 C 352.797 366.073 352.671 366.289 352.641 366.346 C 352.593 366.503 352.621 366.318 352.551 366.126 C 352.504 365.937 352.412 365.693 352.316 365.457 C 351.903 364.484 351.306 363.457 350.687 362.461 C 349.43 360.471 348.01 358.495 346.565 356.622 L 346.549 356.603 C 345.904 355.766 346.059 354.562 346.897 353.916 C 347.735 353.271 348.936 353.424 349.582 354.263 L 349.686 354.41 Z " fill="rgb(78,155,158)"/></g><clipPath id="_clipPath_zFNA7QS1TxTVJvhysK3WWzgTrd4hXomx"><path d=" M 0 0 L 0 490.319 L 490.319 490.319 L 490.319 0 L 0 0 Z " fill="rgb(255,255,255)"/></clipPath><g clip-path="url(#_clipPath_zFNA7QS1TxTVJvhysK3WWzgTrd4hXomx)"><path d=" M 345.967 353.336 C 347.835 353.336 349.784 354.357 349.784 357.493 C 349.784 360.628 346.879 365.031 346.879 365.031 L 341.401 365.031 L 342.967 355.721 L 345.967 353.336 Z " fill="rgb(78,155,158)"/></g><clipPath id="_clipPath_yFkTrohcHq6vpNGOF2M1GNT1iCShC5Tz"><path d=" M 0 0 L 0 490.319 L 490.319 490.319 L 490.319 0 L 0 0 Z " fill="rgb(255,255,255)"/></clipPath><g clip-path="url(#_clipPath_yFkTrohcHq6vpNGOF2M1GNT1iCShC5Tz)"><path d=" M 347.91 353.506 L 347.296 352.211 L 344.945 353.199 C 344.945 353.199 343.888 355.483 343.99 355.449 C 344.093 355.414 347.91 353.506 347.91 353.506 Z " fill="rgb(74,142,144)"/></g><clipPath id="_clipPath_Fcw6ZDInoXMVDLFM57BUsmyko8tLT4MX"><path d=" M 0 0 L 0 490.319 L 490.319 490.319 L 490.319 0 L 0 0 Z " fill="rgb(255,255,255)"/></clipPath><g clip-path="url(#_clipPath_Fcw6ZDInoXMVDLFM57BUsmyko8tLT4MX)"><path d=" M 344.399 353.097 L 343.684 353.199 L 342.218 355.311 L 342.899 355.107 L 344.433 353.881 L 344.399 353.097 Z " fill="rgb(74,142,144)"/></g><clipPath id="_clipPath_fG8adMi3iWFixnXwiKA6OHn8yjoq2O6J"><path d=" M 0 0 L 0 490.319 L 490.319 490.319 L 490.319 0 L 0 0 Z " fill="rgb(255,255,255)"/></clipPath><g clip-path="url(#_clipPath_fG8adMi3iWFixnXwiKA6OHn8yjoq2O6J)"><path d=" M 346.879 365.031 L 340.147 366.668 L 339.764 363.901 L 347.568 363.729 L 346.879 365.031 Z " fill="rgb(78,155,158)"/></g><clipPath id="_clipPath_dmZnbM1vASLN5p3jKZzW0re7GGKusYxt"><path d=" M 0 0 L 0 490.319 L 490.319 490.319 L 490.319 0 L 0 0 Z " fill="rgb(255,255,255)"/></clipPath><g clip-path="url(#_clipPath_dmZnbM1vASLN5p3jKZzW0re7GGKusYxt)"><path d=" M 326.496 387.325 C 326.496 387.053 326.225 383.144 326.225 383.144 L 322.589 383.053 L 324.133 386.325 C 324.133 386.325 322.861 386.597 322.771 387.325 C 322.68 388.051 326.496 387.325 326.496 387.325 Z " fill="rgb(78,155,158)"/></g><clipPath id="_clipPath_GdREJAyWFKEIv4jCCAQbnjjwNOaD3ddI"><path d=" M 0 0 L 0 490.319 L 490.319 490.319 L 490.319 0 L 0 0 Z " fill="rgb(255,255,255)"/></clipPath><g clip-path="url(#_clipPath_GdREJAyWFKEIv4jCCAQbnjjwNOaD3ddI)"><path d=" M 354.941 409.226 C 354.941 409.226 354.306 406.5 354.033 406.59 C 353.76 406.682 350.396 407.863 350.396 407.863 L 353.396 411.317 C 353.396 411.317 351.852 411.68 351.761 412.316 C 351.669 412.952 355.305 412.316 355.305 412.316 L 354.941 409.226 Z " fill="rgb(78,155,158)"/></g><clipPath id="_clipPath_wBOYKcmV1nm5W6pF7J0XtCLCjJTYz22H"><path d=" M 0 0 L 0 490.319 L 490.319 490.319 L 490.319 0 L 0 0 Z " fill="rgb(255,255,255)"/></clipPath><g clip-path="url(#_clipPath_wBOYKcmV1nm5W6pF7J0XtCLCjJTYz22H)"><path d=" M 338.197 364.923 L 338.061 366.148 L 335.266 366.422 C 335.266 366.422 334.857 363.763 336.085 364.037 C 337.312 364.31 338.197 364.923 338.197 364.923 Z " fill="rgb(253,207,141)"/></g><clipPath id="_clipPath_JTVZif0eiZfleKks8jAKvThkbV1V9jfx"><path d=" M 0 0 L 0 490.319 L 490.319 490.319 L 490.319 0 L 0 0 Z " fill="rgb(255,255,255)"/></clipPath><g clip-path="url(#_clipPath_JTVZif0eiZfleKks8jAKvThkbV1V9jfx)"><path d=" M 323.476 358.337 C 322.997 358.38 320.816 356.88 320.816 356.88 C 320.816 356.88 321.498 354.291 322.793 355.039 C 324.088 355.789 324.066 357.421 324.066 357.421 L 323.476 358.337 Z " fill="rgb(253,207,141)"/></g><clipPath id="_clipPath_D7StFSXxKn2GGnKThlbH48QhlE2p1k4U"><path d=" M 0 0 L 0 490.319 L 490.319 490.319 L 490.319 0 L 0 0 Z " fill="rgb(255,255,255)"/></clipPath><g clip-path="url(#_clipPath_D7StFSXxKn2GGnKThlbH48QhlE2p1k4U)"><path d=" M 341.486 344.504 C 341.196 344.747 339.628 345.633 339.628 345.633 L 341.741 346.997 L 342.423 344.611 L 341.486 344.504 Z " fill="rgb(253,207,141)"/></g><clipPath id="_clipPath_11zJaGy1u1sFivbLf8utvV3oyg71UM55"><path d=" M 0 0 L 0 490.319 L 490.319 490.319 L 490.319 0 L 0 0 Z " fill="rgb(255,255,255)"/></clipPath><g clip-path="url(#_clipPath_11zJaGy1u1sFivbLf8utvV3oyg71UM55)"><path d=" M 190.806 298.894 C 191.982 299.992 193.134 300.818 194.411 301.533 C 195.67 302.233 197.043 302.744 198.503 302.768 C 198.865 302.77 199.238 302.719 199.602 302.649 C 199.966 302.539 200.35 302.432 200.639 302.283 C 201.26 302.012 201.873 301.707 202.478 301.376 C 203.691 300.707 204.854 299.973 205.978 298.972 C 206.167 298.803 206.218 298.465 206.091 298.216 C 205.973 297.985 205.746 297.911 205.562 298.033 L 205.533 298.054 C 204.462 298.773 203.249 299.319 202.056 299.757 C 201.454 299.974 200.849 300.168 200.238 300.33 C 199.918 300.434 199.668 300.44 199.404 300.483 C 199.137 300.487 198.867 300.482 198.597 300.435 C 197.505 300.235 196.412 299.655 195.387 298.871 C 194.373 298.106 193.353 297.124 192.53 296.132 L 192.503 296.099 C 191.948 295.43 191.089 295.482 190.583 296.214 C 190.079 296.947 190.118 298.085 190.672 298.753 L 190.806 298.894 Z " fill="rgb(207,104,58)"/></g><clipPath id="_clipPath_Y6MZrOeUiKUrt7BxsTlKI4XL40mxe4ZO"><path d=" M 0 0 L 0 490.319 L 490.319 490.319 L 490.319 0 L 0 0 Z " fill="rgb(255,255,255)"/></clipPath><g clip-path="url(#_clipPath_Y6MZrOeUiKUrt7BxsTlKI4XL40mxe4ZO)"><path d=" M 187.6 301.082 C 187.797 299.644 187.789 298.156 187.728 296.682 C 187.882 296.703 188.045 296.698 188.217 296.652 C 188.992 296.437 189.43 295.471 188.984 294.766 L 188.983 294.771 L 188.963 294.728 L 190.564 294.84 C 190.564 294.84 193.335 296.019 193.778 298.505 C 194.11 300.366 195.856 305.757 195.617 307.248 C 194.205 306.967 192.688 306.837 191.291 306.869 L 191.269 306.873 C 191.233 306.562 191.147 306.259 190.98 305.96 C 190.687 305.434 190.179 304.797 189.562 304.679 C 189.238 304.616 188.892 304.722 188.656 304.93 C 188.404 304.806 188.138 304.774 187.891 304.834 L 187.242 301.692 C 187.426 301.563 187.562 301.363 187.6 301.082 Z " fill="rgb(232,115,58)"/></g><clipPath id="_clipPath_PpbcbrlGFaETYKexfJiFqgUsQgmSBF04"><path d=" M 0 0 L 0 490.319 L 490.319 490.319 L 490.319 0 L 0 0 Z " fill="rgb(255,255,255)"/></clipPath><g clip-path="url(#_clipPath_PpbcbrlGFaETYKexfJiFqgUsQgmSBF04)"><path d=" M 191.161 297.504 L 188.307 297.504 L 188.307 286.591 L 191.161 286.591 L 191.161 297.504 Z " fill="rgb(253,207,141)"/></g><clipPath id="_clipPath_ol1JkI8nYbjstAujSRIC7G9SyLKSOVAk"><path d=" M 0 0 L 0 490.319 L 490.319 490.319 L 490.319 0 L 0 0 Z " fill="rgb(255,255,255)"/></clipPath><g clip-path="url(#_clipPath_ol1JkI8nYbjstAujSRIC7G9SyLKSOVAk)"><path d=" M 194.136 285.885 C 194.866 288.681 194.248 291.264 191.453 291.995 C 188.657 292.725 185.798 291.052 185.068 288.255 C 184.337 285.462 186.011 282.603 188.806 281.872 C 191.602 281.141 193.404 283.092 194.136 285.885 Z " fill="rgb(253,207,141)"/></g><clipPath id="_clipPath_62kdGeENCWqVzUkVcKc6AIMrjmTh8Kp2"><path d=" M 0 0 L 0 490.319 L 490.319 490.319 L 490.319 0 L 0 0 Z " fill="rgb(255,255,255)"/></clipPath><g clip-path="url(#_clipPath_62kdGeENCWqVzUkVcKc6AIMrjmTh8Kp2)"><path d=" M 192.245 320.552 C 192.381 320.347 197.765 316.257 197.765 316.257 L 196.472 315.575 L 192.041 312.713 L 189.859 316.394 L 192.381 320.279" fill="rgb(54,60,77)"/></g><clipPath id="_clipPath_a0sZNMHJ24gLcEwL0w3UM7yDvPDlVu6g"><path d=" M 0 0 L 0 490.319 L 490.319 490.319 L 490.319 0 L 0 0 Z " fill="rgb(255,255,255)"/></clipPath><g clip-path="url(#_clipPath_a0sZNMHJ24gLcEwL0w3UM7yDvPDlVu6g)"><path d=" M 191.385 312.873 L 208.444 309.961 L 208.597 309.934 C 209.386 309.8 210.134 310.33 210.268 311.117 C 210.298 311.288 210.294 311.461 210.265 311.623 L 207.262 327.951 C 207.212 328.223 206.949 328.406 206.675 328.355 C 206.422 328.309 206.248 328.08 206.263 327.829 L 207.261 311.256 L 209.081 312.919 L 192.332 317.278 C 191.127 317.591 189.896 316.869 189.582 315.663 C 189.269 314.459 189.992 313.228 191.196 312.915 L 191.385 312.873 Z " fill="rgb(54,60,77)"/></g><clipPath id="_clipPath_7spRBTFJ8UZUz4pQEn7KoyuaSeRbYDNm"><path d=" M 0 0 L 0 490.319 L 490.319 490.319 L 490.319 0 L 0 0 Z " fill="rgb(255,255,255)"/></clipPath><g clip-path="url(#_clipPath_7spRBTFJ8UZUz4pQEn7KoyuaSeRbYDNm)"><path d=" M 192.733 314.54 C 192.733 314.803 192.724 315.812 192.689 316.079 L 192.607 317.287 L 192.429 319.684 L 192.059 324.464 L 191.291 334.014 L 191.28 334.156 C 191.265 334.338 191.208 334.514 191.124 334.665 L 182.167 350.547 C 182.02 350.808 181.69 350.9 181.429 350.754 C 181.188 350.618 181.091 350.327 181.192 350.078 L 188.05 333.182 L 187.883 333.832 L 188.105 324.265 L 188.202 319.486 L 188.241 317.102 L 188.256 315.919 C 188.244 315.388 188.282 315.6 188.259 315.066 L 188.24 314.639 C 188.184 313.4 189.145 312.351 190.386 312.295 C 191.626 312.239 192.676 313.2 192.732 314.439 L 192.733 314.54 Z " fill="rgb(54,60,77)"/></g><clipPath id="_clipPath_rATTccq8xSpT3ywo9l7giOWGtKk5CzYm"><path d=" M 0 0 L 0 490.319 L 490.319 490.319 L 490.319 0 L 0 0 Z " fill="rgb(255,255,255)"/></clipPath><g clip-path="url(#_clipPath_rATTccq8xSpT3ywo9l7giOWGtKk5CzYm)"><path d=" M 187.3 295.656 C 185.951 297.791 184.706 299.911 183.56 302.174 C 182.994 303.309 182.45 304.453 182.029 305.775 C 181.928 306.115 181.83 306.456 181.768 306.868 C 181.72 307.267 181.624 307.715 181.859 308.456 C 181.97 308.807 182.302 309.273 182.744 309.502 C 183.078 309.661 183.261 309.674 183.528 309.748 C 183.997 309.837 184.297 309.814 184.678 309.837 C 187.334 309.74 189.698 309.251 192.134 308.798 C 194.55 308.316 196.938 307.784 199.326 307.205 C 199.62 307.133 199.799 306.838 199.728 306.545 C 199.662 306.269 199.388 306.094 199.114 306.133 C 196.708 306.484 194.287 306.794 191.872 307.043 C 189.479 307.268 186.994 307.514 184.762 307.381 C 184.537 307.342 184.219 307.319 184.095 307.268 L 184.01 307.246 C 184.188 307.319 184.316 307.534 184.343 307.594 C 184.394 307.749 184.365 307.565 184.435 307.372 C 184.481 307.183 184.573 306.94 184.67 306.703 C 185.083 305.73 185.679 304.703 186.3 303.707 C 187.555 301.717 188.977 299.742 190.42 297.87 L 190.436 297.849 C 191.081 297.012 190.926 295.808 190.089 295.163 C 189.251 294.517 188.049 294.672 187.403 295.51 L 187.3 295.656 Z " fill="rgb(232,115,58)"/></g><clipPath id="_clipPath_Z25lDqGXhht30avjtL6eZiO45XFYkUjg"><path d=" M 0 0 L 0 490.319 L 490.319 490.319 L 490.319 0 L 0 0 Z " fill="rgb(255,255,255)"/></clipPath><g clip-path="url(#_clipPath_Z25lDqGXhht30avjtL6eZiO45XFYkUjg)"><path d=" M 189.655 294.719 C 187.788 294.719 185.838 295.741 185.838 298.876 C 185.838 302.012 188.745 306.416 188.745 306.416 L 194.221 306.416 L 192.654 297.104 L 189.655 294.719 Z " fill="rgb(232,115,58)"/></g><clipPath id="_clipPath_K2WCZwb1MaGrvSWQ0oCmpGH6lNBlXqsq"><path d=" M 0 0 L 0 490.319 L 490.319 490.319 L 490.319 0 L 0 0 Z " fill="rgb(255,255,255)"/></clipPath><g clip-path="url(#_clipPath_K2WCZwb1MaGrvSWQ0oCmpGH6lNBlXqsq)"><path d=" M 207.944 327.708 L 208.011 327.568 C 207.221 327.566 206.434 327.595 205.647 327.604 C 205.608 328.175 205.582 328.621 205.582 328.707 C 205.582 328.707 209.398 329.433 209.307 328.707 C 209.217 327.981 207.944 327.708 207.944 327.708 Z " fill="rgb(230,89,57)"/></g><clipPath id="_clipPath_WUebSR9N0wQPqpt4PC8Hj2UM2iw4DivR"><path d=" M 0 0 L 0 490.319 L 490.319 490.319 L 490.319 0 L 0 0 Z " fill="rgb(255,255,255)"/></clipPath><g clip-path="url(#_clipPath_WUebSR9N0wQPqpt4PC8Hj2UM2iw4DivR)"><path d=" M 182.225 351.546 L 182.496 351.246 C 181.847 351.108 181.217 350.941 180.596 350.731 L 180.535 350.722 L 180.317 352.518 C 180.317 352.518 183.953 353.132 183.862 352.518 C 183.77 351.899 182.225 351.546 182.225 351.546 Z " fill="rgb(230,89,57)"/></g><clipPath id="_clipPath_HxdTeoqFGg5u1zqJbhwqoDsdoeagAaic"><path d=" M 0 0 L 0 490.319 L 490.319 490.319 L 490.319 0 L 0 0 Z " fill="rgb(255,255,255)"/></clipPath><g clip-path="url(#_clipPath_HxdTeoqFGg5u1zqJbhwqoDsdoeagAaic)"><path d=" M 198.788 306.17 L 198.925 307.396 L 201.719 307.669 C 201.719 307.669 202.129 305.011 200.901 305.284 C 199.674 305.556 198.788 306.17 198.788 306.17 Z " fill="rgb(253,207,141)"/></g><clipPath id="_clipPath_QS0sTW3DNSjmYKf16V06oQuMKfOVGpSj"><path d=" M 0 0 L 0 490.319 L 490.319 490.319 L 490.319 0 L 0 0 Z " fill="rgb(255,255,255)"/></clipPath><g clip-path="url(#_clipPath_QS0sTW3DNSjmYKf16V06oQuMKfOVGpSj)"><path d=" M 205.978 298.972 C 206.341 299.013 207.99 297.513 207.99 297.513 C 207.99 297.513 207.474 294.923 206.495 295.673 C 205.516 296.422 205.533 298.054 205.533 298.054 L 205.978 298.972 Z " fill="rgb(253,207,141)"/></g><clipPath id="_clipPath_3KsTW8cuTptXDmZFHyk4YkmTdDCyKx3d"><path d=" M 0 0 L 0 490.319 L 490.319 490.319 L 490.319 0 L 0 0 Z " fill="rgb(255,255,255)"/></clipPath><g clip-path="url(#_clipPath_3KsTW8cuTptXDmZFHyk4YkmTdDCyKx3d)"><path d=" M 194.136 285.954 C 194.426 286.198 195.993 287.084 195.993 287.084 L 193.881 288.449 L 193.199 286.063 L 194.136 285.954 Z " fill="rgb(253,207,141)"/></g><clipPath id="_clipPath_zK9zOAWm68UYclPVNmgtwbRCQFc2xW8n"><path d=" M 0 0 L 0 490.319 L 490.319 490.319 L 490.319 0 L 0 0 Z " fill="rgb(255,255,255)"/></clipPath><g clip-path="url(#_clipPath_zK9zOAWm68UYclPVNmgtwbRCQFc2xW8n)"><path d=" M 184.725 283.45 C 184.725 283.45 187.723 280.451 191.541 281.177 C 195.358 281.905 192.722 284.813 191.36 285.994 C 189.996 287.175 186.633 290.902 186.633 290.902 C 186.633 290.902 181.181 286.994 184.725 283.45 Z " fill="rgb(54,60,77)"/></g><clipPath id="_clipPath_fI2tyyYJWaInQSuXoeH2jAYBLyvwJwCi"><path d=" M 0 0 L 0 490.319 L 490.319 490.319 L 490.319 0 L 0 0 Z " fill="rgb(255,255,255)"/></clipPath><g clip-path="url(#_clipPath_fI2tyyYJWaInQSuXoeH2jAYBLyvwJwCi)"><path d=" M 188.156 291.855 C 188.347 291.926 188.632 284.836 188.632 284.836 L 184.134 287.97 C 184.134 287.97 185.02 290.697 188.156 291.855 Z " fill="rgb(54,60,77)"/></g><clipPath id="_clipPath_KzT7ALwiMPH3at5DxmommJWb65ndUGRE"><path d=" M 0 0 L 0 490.319 L 490.319 490.319 L 490.319 0 L 0 0 Z " fill="rgb(255,255,255)"/></clipPath><g clip-path="url(#_clipPath_KzT7ALwiMPH3at5DxmommJWb65ndUGRE)"><path d=" M 186.383 300.785 C 186.452 300.95 186.724 313.695 186.724 313.695 C 186.724 313.695 190.268 314.025 193.404 313.531 C 196.538 313.036 197.835 311.773 197.835 311.773 L 194.836 302.873 L 186.383 300.785 Z " fill="rgb(232,115,58)"/></g><clipPath id="_clipPath_1Fd540kaJdwF8NcsF2h4zjo56V32UEC0"><path d=" M 0 0 L 0 490.319 L 490.319 490.319 L 490.319 0 L 0 0 Z " fill="rgb(255,255,255)"/></clipPath><g clip-path="url(#_clipPath_1Fd540kaJdwF8NcsF2h4zjo56V32UEC0)"><path d=" M 188.088 294.923 L 188.224 293.423 L 191.495 293.969 L 191.427 296.763 L 188.427 295.673 L 188.088 294.923 Z " fill="rgb(232,115,58)"/></g><path d=" M 0 0 L 0 490.319 L 490.319 490.319 L 490.319 0 L 0 0 Z " fill="none"/><path d=" M 0 0 L 0 490.319 L 490.319 490.319 L 490.319 0 L 0 0 Z " fill="none"/><path d=" M 0 0 L 0 490.319 L 490.319 490.319 L 490.319 0 L 0 0 Z " fill="none"/></g></svg>